<svg xmlns="http://www.w3.org/2000/svg" xmlns:xlink="http://www.w3.org/1999/xlink" width="87.96mm" height="55.824" version="1.2" viewBox="8.536 0 50.054 8.406"><style></style><path stroke="currentColor" stroke-linecap="round" stroke-linejoin="round" stroke-width=".1" d="M8.586 5.545H58.59M8.586 4.545H58.59M8.586 3.545H58.59M8.586 2.545H58.59M8.586 1.545H58.59"/><rect width="1.956" height=".2" x="34.31" y="-.1" fill="currentColor" ry=".1" transform="translate(0 .545)"/><a xlink:href="textedit:///home/mike/code/lilypond-scripts/piano-scales/c-major-scale-left-hand.ly:16:6:7" style="color:inherit"><path fill="currentColor" d="M41.308 1.001c.22 0 .432.112.432.356 0 .284-.22.484-.408.596a.908.908 0 0 1-.464.136c-.22 0-.432-.112-.432-.356 0-.284.22-.484.408-.596.14-.084.3-.136.464-.136z"/></a><a xlink:href="textedit:///home/mike/code/lilypond-scripts/piano-scales/c-major-scale-left-hand.ly:16:7:8" style="color:inherit"><path fill="currentColor" d="M41.036 6.186c-.074 0-.154.017-.154.083 0 .042.069.05.069.092a.112.112 0 1 1-.224 0c0-.147.149-.24.31-.24.204 0 .382.069.382.25 0 .09-.013.169-.092.206-.024.011-.038.035-.038.06s.014.048.038.059c.088.042.13.117.13.216 0 .206-.183.31-.41.31-.18 0-.352-.1-.352-.262a.128.128 0 0 1 .256 0c0 .048-.08.057-.08.106 0 .072.093.092.176.092.102 0 .124-.128.124-.247v-.083c0-.088-.01-.152-.095-.152h-.163c-.026 0-.04-.02-.04-.04s.014-.04.04-.04h.163c.088 0 .095-.067.095-.16V6.37c0-.11-.036-.184-.135-.184z"/></a><rect width=".13" height="3.086" x="-.065" y="-1.814" fill="currentColor" ry=".04" transform="translate(40.5 3.545)"/><a xlink:href="textedit:///home/mike/code/lilypond-scripts/piano-scales/c-major-scale-left-hand.ly:16:10:11" style="color:inherit"><path fill="currentColor" d="M44.208 1.501c.22 0 .432.112.432.356 0 .284-.22.484-.408.596a.908.908 0 0 1-.464.136c-.22 0-.432-.112-.432-.356 0-.284.22-.484.408-.596.14-.084.3-.136.464-.136z"/></a><a xlink:href="textedit:///home/mike/code/lilypond-scripts/piano-scales/c-major-scale-left-hand.ly:16:11:12" style="color:inherit"><path fill="currentColor" d="M43.88 6.972h.285c0 .114.07.22.178.22.022 0 .031.018.031.033s-.009.03-.03.03c-.109 0-.214-.03-.322-.03s-.211.03-.319.03c-.022 0-.033-.015-.033-.03s.011-.033.033-.033c.108 0 .176-.106.176-.22zm-.285-.266.284-.55c.007-.015.029-.007.046 0 .031.013.062.03.097.03s.068-.017.1-.03c.003-.002.003-.002.008-.002.017 0 .035.02.035.046v.772h-.286V6.5c0-.033-.024-.05-.044-.05-.01 0-.02.004-.024.015l-.145.28c-.01.015-.02.02-.033.02-.02 0-.042-.016-.042-.038 0-.007 0-.014.004-.02z"/></a><rect width=".13" height="2.852" x="-.065" y="-1.314" fill="currentColor" ry=".04" transform="translate(43.4 3.545)"/><path fill="currentColor" stroke="currentColor" stroke-linecap="round" stroke-linejoin="round" stroke-width=".08" d="M23.126 5.535v.4l-8.75.81v-.4z"/><a xlink:href="textedit:///home/mike/code/lilypond-scripts/piano-scales/c-major-scale-left-hand.ly:15:25:26" style="color:inherit"><path fill="currentColor" d="M35.508.001c.22 0 .432.112.432.356 0 .284-.22.484-.408.596a.908.908 0 0 1-.464.136c-.22 0-.432-.112-.432-.356 0-.284.22-.484.408-.596.14-.084.3-.136.464-.136z"/></a><a xlink:href="textedit:///home/mike/code/lilypond-scripts/piano-scales/c-major-scale-left-hand.ly:15:26:27" style="color:inherit"><path fill="currentColor" d="M35.18 6.972h.285c0 .114.07.22.178.22.022 0 .031.018.031.033s-.009.03-.03.03c-.109 0-.214-.03-.322-.03s-.211.03-.319.03c-.022 0-.033-.015-.033-.03s.011-.033.033-.033c.108 0 .176-.106.176-.22zm-.285-.266.284-.55c.007-.015.029-.007.046 0 .031.013.062.03.097.03s.068-.017.1-.03c.003-.002.003-.002.008-.002.017 0 .035.02.035.046v.772h-.286V6.5c0-.033-.024-.05-.044-.05-.01 0-.02.004-.024.015l-.145.28c-.01.015-.02.02-.033.02-.02 0-.042-.016-.042-.038 0-.007 0-.014.004-.02z"/></a><rect width=".13" height="3.011" x="-.065" y="-2.814" fill="currentColor" ry=".04" transform="translate(34.7 3.545)"/><a xlink:href="textedit:///home/mike/code/lilypond-scripts/piano-scales/c-major-scale-left-hand.ly:16:4:5" style="color:inherit"><path fill="currentColor" d="M38.408.501c.22 0 .432.112.432.356 0 .284-.22.484-.408.596a.908.908 0 0 1-.464.136c-.22 0-.432-.112-.432-.356 0-.284.22-.484.408-.596.14-.084.3-.136.464-.136z"/></a><rect width=".13" height="3.32" x="-.065" y="-2.314" fill="currentColor" ry=".04" transform="translate(37.6 3.545)"/><a xlink:href="textedit:///home/mike/code/lilypond-scripts/piano-scales/c-major-scale-left-hand.ly:16:20:21" style="color:inherit"><path fill="currentColor" d="M55.808 3.501c.22 0 .432.112.432.356 0 .284-.22.484-.408.596a.908.908 0 0 1-.464.136c-.22 0-.432-.112-.432-.356 0-.284.22-.484.408-.596.14-.084.3-.136.464-.136z"/></a><a xlink:href="textedit:///home/mike/code/lilypond-scripts/piano-scales/c-major-scale-left-hand.ly:16:22:23" style="color:inherit"><path fill="currentColor" d="M55.314 6.122c.1.017.2.03.302.03s.202-.013.3-.03h.01c.024 0 .042.015.042.03 0 .005-.003.01-.007.014a.796.796 0 0 1-.568.222c-.024 0-.044.022-.044.046v.16c.06-.059.148-.078.234-.078.257 0 .413.11.413.354 0 .213-.211.352-.44.352-.185 0-.36-.095-.36-.262a.128.128 0 0 1 .255 0c0 .048-.08.057-.08.106 0 .077.097.092.185.092.121 0 .156-.148.156-.288 0-.13-.017-.275-.13-.275-.092 0-.186.01-.24.083a.045.045 0 0 1-.032.018.04.04 0 0 1-.04-.04v-.49c0-.025.018-.044.04-.044h.004z"/></a><rect width=".13" height="3.314" x="-.065" y="-3" fill="currentColor" ry=".04" transform="translate(56.175 3.545)"/><path fill="currentColor" stroke="currentColor" stroke-linecap="round" stroke-linejoin="round" stroke-width=".08" d="M52.126 6.345v.4l-2.95-.19v-.4zM46.326 5.155v.4l-8.75-.81v-.4zM34.726 3.535v.4l-8.75 1v-.4z"/><rect width=".13" height="2.81" x="-.065" y=".186" fill="currentColor" ry=".04" transform="translate(52.1 3.545)"/><a xlink:href="textedit:///home/mike/code/lilypond-scripts/piano-scales/c-major-scale-left-hand.ly:16:18:19" style="color:inherit"><path fill="currentColor" d="M52.908 3.001c.22 0 .432.112.432.356 0 .284-.22.484-.408.596a.908.908 0 0 1-.464.136c-.22 0-.432-.112-.432-.356 0-.284.22-.484.408-.596.14-.084.3-.136.464-.136z"/></a><rect width=".13" height="3.128" x="-.065" y="-.314" fill="currentColor" ry=".04" transform="translate(49.2 3.545)"/><a xlink:href="textedit:///home/mike/code/lilypond-scripts/piano-scales/c-major-scale-left-hand.ly:16:16:17" style="color:inherit"><path fill="currentColor" d="M50.008 2.501c.22 0 .432.112.432.356 0 .284-.22.484-.408.596a.908.908 0 0 1-.464.136c-.22 0-.432-.112-.432-.356 0-.284.22-.484.408-.596.14-.084.3-.136.464-.136z"/></a><rect width=".13" height="2.618" x="-.065" y="-.814" fill="currentColor" ry=".04" transform="translate(46.3 3.545)"/><a xlink:href="textedit:///home/mike/code/lilypond-scripts/piano-scales/c-major-scale-left-hand.ly:16:14:15" style="color:inherit"><path fill="currentColor" d="M47.108 2.001c.22 0 .432.112.432.356 0 .284-.22.484-.408.596a.908.908 0 0 1-.464.136c-.22 0-.432-.112-.432-.356 0-.284.22-.484.408-.596.14-.084.3-.136.464-.136z"/></a><a xlink:href="textedit:///home/mike/code/lilypond-scripts/piano-scales/c-major-scale-left-hand.ly:15:9:10" style="color:inherit"><path fill="currentColor" d="M18.108 3.001c.22 0 .432.112.432.356 0 .284-.22.484-.408.596a.908.908 0 0 1-.464.136c-.22 0-.432-.112-.432-.356 0-.284.22-.484.408-.596.14-.084.3-.136.464-.136z"/></a><rect width=".13" height="2.542" x="-.065" y=".186" fill="currentColor" ry=".04" transform="translate(17.3 3.545)"/><a xlink:href="textedit:///home/mike/code/lilypond-scripts/piano-scales/c-major-scale-left-hand.ly:15:11:12" style="color:inherit"><path fill="currentColor" d="M21.008 2.501c.22 0 .432.112.432.356 0 .284-.22.484-.408.596a.908.908 0 0 1-.464.136c-.22 0-.432-.112-.432-.356 0-.284.22-.484.408-.596.14-.084.3-.136.464-.136z"/></a><rect width=".13" height="2.84" x="-.065" y="-2.314" fill="currentColor" ry=".04" transform="translate(31.8 3.545)"/><a xlink:href="textedit:///home/mike/code/lilypond-scripts/piano-scales/c-major-scale-left-hand.ly:15:13:14" style="color:inherit"><path fill="currentColor" d="M23.908 2.001c.22 0 .432.112.432.356 0 .284-.22.484-.408.596a.908.908 0 0 1-.464.136c-.22 0-.432-.112-.432-.356 0-.284.22-.484.408-.596.14-.084.3-.136.464-.136z"/></a><rect width=".13" height="2.776" x="-.065" y="-.314" fill="currentColor" ry=".04" transform="translate(20.2 3.545)"/><rect width=".13" height="2.308" x="-.065" y=".686" fill="currentColor" ry=".04" transform="translate(14.4 3.545)"/><path fill="currentColor" d="M11.564 3.045c0-.112.092-.204.204-.204s.204.092.204.204-.092.204-.204.204-.204-.092-.204-.204zm0-1c0-.112.092-.204.204-.204s.204.092.204.204-.092.204-.204.204-.204-.092-.204-.204zm-1.3-.552c.688 0 1.172.352 1.172 1.004 0 1.052-1.052 1.656-2.064 2.084a.049.049 0 0 1-.036.016.053.053 0 0 1-.052-.052c0-.012.004-.024.016-.036.808-.472 1.648-1.06 1.648-1.972 0-.48-.252-.94-.684-.94-.296 0-.516.216-.616.504a.323.323 0 0 1 .136-.032c.22 0 .4.18.4.4 0 .232-.176.424-.4.424-.24 0-.448-.188-.448-.424 0-.532.408-.976.928-.976z"/><a xlink:href="textedit:///home/mike/code/lilypond-scripts/piano-scales/c-major-scale-left-hand.ly:15:6:7" style="color:inherit"><path fill="currentColor" d="M14.714 7.306c.1.017.2.03.301.03s.203-.013.302-.03h.009c.024 0 .041.015.041.03 0 .005-.002.01-.006.014a.796.796 0 0 1-.568.222c-.024 0-.044.022-.044.046v.16c.06-.059.148-.078.233-.078.258 0 .414.11.414.354 0 .213-.211.352-.44.352-.185 0-.36-.095-.36-.262a.128.128 0 0 1 .254 0c0 .048-.079.057-.079.106 0 .077.097.092.185.092.121 0 .156-.147.156-.288 0-.13-.017-.275-.13-.275-.092 0-.187.01-.24.083a.045.045 0 0 1-.032.018.04.04 0 0 1-.04-.04v-.49c0-.024.018-.044.04-.044h.004z"/></a><a xlink:href="textedit:///home/mike/code/lilypond-scripts/piano-scales/c-major-scale-left-hand.ly:15:4:5" style="color:inherit"><path fill="currentColor" d="M15.208 3.501c.22 0 .432.112.432.356 0 .284-.22.484-.408.596a.908.908 0 0 1-.464.136c-.22 0-.432-.112-.432-.356 0-.284.22-.484.408-.596.14-.084.3-.136.464-.136z"/></a><a xlink:href="textedit:///home/mike/code/lilypond-scripts/piano-scales/c-major-scale-left-hand.ly:15:23:24" style="color:inherit"><path fill="currentColor" d="M32.608.501c.22 0 .432.112.432.356 0 .284-.22.484-.408.596a.908.908 0 0 1-.464.136c-.22 0-.432-.112-.432-.356 0-.284.22-.484.408-.596.14-.084.3-.136.464-.136z"/></a><rect width=".13" height="2.668" x="-.065" y="-1.814" fill="currentColor" ry=".04" transform="translate(28.9 3.545)"/><a xlink:href="textedit:///home/mike/code/lilypond-scripts/piano-scales/c-major-scale-left-hand.ly:15:20:21" style="color:inherit"><path fill="currentColor" d="M29.436 6.186c-.074 0-.154.017-.154.083 0 .042.069.05.069.092a.112.112 0 1 1-.224 0c0-.147.149-.24.31-.24.204 0 .382.069.382.25 0 .09-.013.169-.092.206-.024.011-.038.035-.038.06s.013.048.038.059c.088.042.13.117.13.216 0 .206-.183.31-.41.31-.18 0-.352-.1-.352-.262a.128.128 0 0 1 .256 0c0 .048-.08.057-.08.106 0 .072.093.092.176.092.102 0 .124-.128.124-.247v-.083c0-.088-.01-.152-.095-.152h-.163c-.026 0-.04-.02-.04-.04s.014-.04.04-.04h.163c.088 0 .095-.067.095-.16V6.37c0-.11-.036-.184-.135-.184z"/></a><a xlink:href="textedit:///home/mike/code/lilypond-scripts/piano-scales/c-major-scale-left-hand.ly:15:19:20" style="color:inherit"><path fill="currentColor" d="M29.708 1.001c.22 0 .432.112.432.356 0 .284-.22.484-.408.596a.908.908 0 0 1-.464.136c-.22 0-.432-.112-.432-.356 0-.284.22-.484.408-.596.14-.084.3-.136.464-.136z"/></a><rect width=".13" height="3.01" x="-.065" y="-.814" fill="currentColor" ry=".04" transform="translate(23.1 3.545)"/><rect width=".13" height="2.497" x="-.065" y="-1.314" fill="currentColor" ry=".04" transform="translate(26 3.545)"/><a xlink:href="textedit:///home/mike/code/lilypond-scripts/piano-scales/c-major-scale-left-hand.ly:15:16:17" style="color:inherit"><path fill="currentColor" d="M26.48 6.972h.285c0 .114.07.22.178.22.022 0 .031.018.031.033s-.009.03-.03.03c-.108 0-.214-.03-.322-.03s-.211.03-.319.03c-.022 0-.033-.015-.033-.03s.011-.033.033-.033c.108 0 .176-.106.176-.22zm-.285-.266.284-.55c.007-.015.029-.007.046 0 .031.013.062.03.097.03s.068-.017.1-.03c.003-.002.003-.002.008-.002.018 0 .035.02.035.046v.772h-.286V6.5c0-.033-.024-.05-.044-.05-.01 0-.02.004-.024.015l-.145.28c-.01.015-.02.02-.033.02-.02 0-.042-.016-.042-.038 0-.007 0-.014.004-.02z"/></a><a xlink:href="textedit:///home/mike/code/lilypond-scripts/piano-scales/c-major-scale-left-hand.ly:15:15:16" style="color:inherit"><path fill="currentColor" d="M26.808 1.501c.22 0 .432.112.432.356 0 .284-.22.484-.408.596a.908.908 0 0 1-.464.136c-.22 0-.432-.112-.432-.356 0-.284.22-.484.408-.596.14-.084.3-.136.464-.136z"/></a></svg>