<svg xmlns="http://www.w3.org/2000/svg" xmlns:xlink="http://www.w3.org/1999/xlink" width="87.96mm" height="55.861" version="1.2" viewBox="8.536 0 50.054 8.411"><style></style><path stroke="currentColor" stroke-linecap="round" stroke-linejoin="round" stroke-width=".1" d="M8.586 6.86H58.59M8.586 5.86H58.59M8.586 4.86H58.59M8.586 3.86H58.59M8.586 2.86H58.59"/><rect width="1.956" height=".2" x="54.61" y="-.1" fill="currentColor" ry=".1" transform="translate(0 7.86)"/><rect width="1.956" height=".2" x="14.01" y="-.1" fill="currentColor" ry=".1" transform="translate(0 7.86)"/><a xlink:href="textedit:///home/mike/code/lilypond-scripts/piano-scales/c-major-scale-right-hand.ly:15:8:9" style="color:inherit"><path fill="currentColor" d="M41.308 4.817c.22 0 .432.112.432.356 0 .284-.22.484-.408.596a.908.908 0 0 1-.464.136c-.22 0-.432-.112-.432-.356 0-.284.22-.484.408-.596.14-.084.3-.136.464-.136z"/></a><rect width=".13" height="2.852" x="-.065" y="-2.538" fill="currentColor" ry=".04" transform="translate(41.675 4.86)"/><a xlink:href="textedit:///home/mike/code/lilypond-scripts/piano-scales/c-major-scale-right-hand.ly:15:10:11" style="color:inherit"><path fill="currentColor" d="M44.208 5.317c.22 0 .432.112.432.356 0 .284-.22.484-.408.596a.908.908 0 0 1-.464.136c-.22 0-.432-.112-.432-.356 0-.284.22-.484.408-.596.14-.084.3-.136.464-.136z"/></a><rect width=".13" height="3.086" x="-.065" y="-2.272" fill="currentColor" ry=".04" transform="translate(44.575 4.86)"/><path fill="currentColor" stroke="currentColor" stroke-linecap="round" stroke-linejoin="round" stroke-width=".08" d="M24.3 3.47v.4l-8.75 1v-.4z"/><a xlink:href="textedit:///home/mike/code/lilypond-scripts/piano-scales/c-major-scale-right-hand.ly:14:28:29" style="color:inherit"><path fill="currentColor" d="M35.508 3.817c.22 0 .432.112.432.356 0 .284-.22.484-.408.596a.908.908 0 0 1-.464.136c-.22 0-.432-.112-.432-.356 0-.284.22-.484.408-.596.14-.084.3-.136.464-.136z"/></a><a xlink:href="textedit:///home/mike/code/lilypond-scripts/piano-scales/c-major-scale-right-hand.ly:14:29:30" style="color:inherit"><path fill="currentColor" d="M35.014.027c.1.017.2.03.301.03s.203-.013.302-.03h.009c.024 0 .042.015.042.03 0 .005-.003.01-.007.014a.796.796 0 0 1-.568.222c-.024 0-.044.022-.044.046V.5c.06-.059.148-.079.234-.079.257 0 .413.11.413.355 0 .213-.211.352-.44.352-.185 0-.36-.095-.36-.262a.128.128 0 0 1 .255 0c0 .048-.08.057-.08.106 0 .077.097.092.185.092.121 0 .156-.147.156-.288 0-.13-.017-.275-.13-.275-.092 0-.186.01-.24.083a.045.045 0 0 1-.032.018.04.04 0 0 1-.04-.04v-.49c0-.025.018-.044.04-.044h.004z"/></a><rect width=".13" height="2.308" x="-.065" y="-2.994" fill="currentColor" ry=".04" transform="translate(35.875 4.86)"/><a xlink:href="textedit:///home/mike/code/lilypond-scripts/piano-scales/c-major-scale-right-hand.ly:15:4:5" style="color:inherit"><path fill="currentColor" d="M38.408 4.317c.22 0 .432.112.432.356 0 .284-.22.484-.408.596a.908.908 0 0 1-.464.136c-.22 0-.432-.112-.432-.356 0-.284.22-.484.408-.596.14-.084.3-.136.464-.136z"/></a><a xlink:href="textedit:///home/mike/code/lilypond-scripts/piano-scales/c-major-scale-right-hand.ly:15:5:6" style="color:inherit"><path fill="currentColor" d="M38.163.692c.052-.033.105-.064.143-.114.026-.036.041-.075.061-.115.005-.01.013-.015.024-.015.018 0 .036.013.036.037v.477h.173c.027 0 .04.02.04.04s-.013.04-.04.04h-.173c.004.112.072.21.176.21.022 0 .033.019.033.034s-.011.03-.033.03c-.108 0-.212-.03-.32-.03s-.213.03-.32.03c-.023 0-.031-.015-.031-.03s.008-.033.03-.033c.104 0 .174-.1.179-.211h-.335c-.064 0-.083-.038-.083-.062 0-.006.002-.013.004-.017a1.06 1.06 0 0 0 .27-.702c0-.024.018-.046.038-.046l.009.002c.055.015.11.03.167.03s.114-.015.17-.03c.004-.002.008-.002.013-.002.022 0 .037.015.037.03 0 .005 0 .011-.004.016l-.62.702h.334V.75c0-.022.002-.046.022-.06z"/></a><rect width=".13" height="2.618" x="-.065" y="-2.804" fill="currentColor" ry=".04" transform="translate(38.775 4.86)"/><a xlink:href="textedit:///home/mike/code/lilypond-scripts/piano-scales/c-major-scale-right-hand.ly:15:22:23" style="color:inherit"><path fill="currentColor" d="M55.808 7.317c.22 0 .432.112.432.356 0 .284-.22.484-.408.596a.908.908 0 0 1-.464.136c-.22 0-.432-.112-.432-.356 0-.284.22-.484.408-.596.14-.084.3-.136.464-.136z"/></a><a xlink:href="textedit:///home/mike/code/lilypond-scripts/piano-scales/c-major-scale-right-hand.ly:15:24:25" style="color:inherit"><path fill="currentColor" d="M55.48 2.027h.285c0 .114.07.22.178.22.022 0 .031.018.031.033s-.009.03-.03.03c-.109 0-.214-.03-.322-.03s-.211.03-.319.03c-.022 0-.033-.015-.033-.03s.011-.033.033-.033c.108 0 .176-.106.176-.22zm-.285-.266.284-.55c.007-.016.029-.007.046 0 .031.013.062.03.097.03s.068-.017.1-.03c.003-.002.003-.002.008-.002.018 0 .035.02.035.046v.772h-.286v-.473c0-.033-.024-.05-.044-.05-.01 0-.02.004-.024.015l-.145.28c-.01.015-.02.019-.033.019-.02 0-.042-.015-.042-.037 0-.007 0-.014.004-.02z"/></a><rect width=".13" height="3.314" x="-.065" y="-.5" fill="currentColor" ry=".04" transform="translate(56.175 4.86)"/><path fill="currentColor" stroke="currentColor" stroke-linecap="round" stroke-linejoin="round" stroke-width=".08" d="M53.3 3.85v.4l-2.95-.19v-.4zM47.5 2.66v.4l-8.75-.81v-.4zM35.9 1.66v.4l-8.75.81v-.4z"/><a xlink:href="textedit:///home/mike/code/lilypond-scripts/piano-scales/c-major-scale-right-hand.ly:15:17:18" style="color:inherit"><path fill="currentColor" d="M49.736 1.275c-.074 0-.154.017-.154.083 0 .042.068.05.068.093 0 .061-.05.112-.112.112s-.112-.05-.112-.112c0-.148.15-.24.31-.24.205 0 .383.068.383.248 0 .09-.013.17-.092.207-.025.011-.038.035-.038.06s.014.048.038.059c.088.042.13.117.13.216 0 .206-.183.31-.41.31-.18 0-.352-.1-.352-.262a.128.128 0 0 1 .256 0c0 .048-.08.057-.08.106 0 .072.093.092.176.092.102 0 .124-.128.124-.246v-.084c0-.088-.01-.152-.095-.152h-.163c-.026 0-.04-.02-.04-.04s.014-.039.04-.039h.163c.088 0 .095-.068.095-.16v-.067c0-.11-.036-.184-.135-.184z"/></a><a xlink:href="textedit:///home/mike/code/lilypond-scripts/piano-scales/c-major-scale-right-hand.ly:15:12:13" style="color:inherit"><path fill="currentColor" d="M47.108 5.817c.22 0 .432.112.432.356 0 .284-.22.484-.408.596a.908.908 0 0 1-.464.136c-.22 0-.432-.112-.432-.356 0-.284.22-.484.408-.596.14-.084.3-.136.464-.136z"/></a><a xlink:href="textedit:///home/mike/code/lilypond-scripts/piano-scales/c-major-scale-right-hand.ly:15:13:14" style="color:inherit"><path fill="currentColor" d="M46.78 1.831h.285c0 .114.07.22.178.22.022 0 .031.018.031.033s-.009.03-.03.03c-.109 0-.214-.03-.322-.03s-.211.03-.319.03c-.022 0-.033-.015-.033-.03s.011-.033.033-.033c.108 0 .176-.106.176-.22zm-.285-.266.284-.55c.007-.016.029-.007.046 0 .031.013.062.03.097.03s.068-.017.1-.03c.003-.002.003-.002.008-.002.017 0 .035.02.035.046v.772h-.286v-.473c0-.033-.024-.05-.044-.05-.01 0-.02.004-.024.015l-.145.28c-.01.015-.02.019-.033.019-.02 0-.042-.015-.042-.037 0-.007 0-.014.004-.02z"/></a><rect width=".13" height="3.32" x="-.065" y="-2.006" fill="currentColor" ry=".04" transform="translate(47.475 4.86)"/><a xlink:href="textedit:///home/mike/code/lilypond-scripts/piano-scales/c-major-scale-right-hand.ly:15:16:17" style="color:inherit"><path fill="currentColor" d="M50.008 6.317c.22 0 .432.112.432.356 0 .284-.22.484-.408.596a.908.908 0 0 1-.464.136c-.22 0-.432-.112-.432-.356 0-.284.22-.484.408-.596.14-.084.3-.136.464-.136z"/></a><rect width=".13" height="2.81" x="-.065" y="-.996" fill="currentColor" ry=".04" transform="translate(50.375 4.86)"/><a xlink:href="textedit:///home/mike/code/lilypond-scripts/piano-scales/c-major-scale-right-hand.ly:15:20:21" style="color:inherit"><path fill="currentColor" d="M52.908 6.817c.22 0 .432.112.432.356 0 .284-.22.484-.408.596a.908.908 0 0 1-.464.136c-.22 0-.432-.112-.432-.356 0-.284.22-.484.408-.596.14-.084.3-.136.464-.136z"/></a><rect width=".13" height="3.128" x="-.065" y="-.814" fill="currentColor" ry=".04" transform="translate(53.275 4.86)"/><a xlink:href="textedit:///home/mike/code/lilypond-scripts/piano-scales/c-major-scale-right-hand.ly:14:10:11" style="color:inherit"><path fill="currentColor" d="M18.108 6.817c.22 0 .432.112.432.356 0 .284-.22.484-.408.596a.908.908 0 0 1-.464.136c-.22 0-.432-.112-.432-.356 0-.284.22-.484.408-.596.14-.084.3-.136.464-.136z"/></a><rect width=".13" height="2.84" x="-.065" y="-.526" fill="currentColor" ry=".04" transform="translate(18.475 4.86)"/><a xlink:href="textedit:///home/mike/code/lilypond-scripts/piano-scales/c-major-scale-right-hand.ly:14:12:13" style="color:inherit"><path fill="currentColor" d="M21.008 6.317c.22 0 .432.112.432.356 0 .284-.22.484-.408.596a.908.908 0 0 1-.464.136c-.22 0-.432-.112-.432-.356 0-.284.22-.484.408-.596.14-.084.3-.136.464-.136z"/></a><a xlink:href="textedit:///home/mike/code/lilypond-scripts/piano-scales/c-major-scale-right-hand.ly:14:13:14" style="color:inherit"><path fill="currentColor" d="M20.736 1.275c-.075 0-.154.017-.154.083 0 .042.068.05.068.093 0 .061-.05.112-.112.112s-.112-.05-.112-.112c0-.148.15-.24.31-.24.205 0 .383.068.383.248 0 .09-.013.17-.092.207-.025.011-.038.035-.038.06s.013.048.038.059c.088.042.13.117.13.216 0 .206-.183.31-.41.31-.18 0-.352-.1-.352-.262a.128.128 0 0 1 .256 0c0 .048-.08.057-.08.106 0 .072.093.092.176.092.101 0 .123-.128.123-.246v-.084c0-.088-.008-.152-.094-.152h-.163c-.026 0-.04-.02-.04-.04s.014-.039.04-.039h.163c.088 0 .095-.068.095-.16v-.067c0-.11-.036-.184-.135-.184z"/></a><rect width=".13" height="2.668" x="-.065" y="-.854" fill="currentColor" ry=".04" transform="translate(21.375 4.86)"/><a xlink:href="textedit:///home/mike/code/lilypond-scripts/piano-scales/c-major-scale-right-hand.ly:14:25:26" style="color:inherit"><path fill="currentColor" d="M32.363.768c.052-.033.105-.064.143-.114.026-.036.041-.075.061-.115.005-.01.013-.015.024-.015.018 0 .036.013.036.037v.478h.173c.027 0 .04.02.04.04s-.013.039-.04.039h-.173c.004.112.072.211.176.211.022 0 .033.018.033.033s-.011.03-.033.03c-.108 0-.212-.03-.32-.03s-.213.03-.32.03c-.023 0-.031-.015-.031-.03s.008-.033.03-.033c.104 0 .174-.099.179-.211h-.335c-.064 0-.083-.038-.083-.062 0-.006.002-.013.004-.017a1.06 1.06 0 0 0 .27-.702c0-.024.018-.046.038-.046l.009.002c.055.015.11.03.167.03s.114-.015.17-.03c.004-.002.008-.002.013-.002.022 0 .037.015.037.03 0 .005 0 .011-.004.016l-.62.702h.334V.827c0-.022.002-.046.022-.059z"/></a><rect width=".13" height="3.011" x="-.065" y="-.197" fill="currentColor" ry=".04" transform="translate(15.575 4.86)"/><path fill="currentColor" d="M10.4 8.4h-.024a.783.783 0 0 1-.78-.787c0-.232.212-.412.448-.412.216 0 .38.188.38.412 0 .208-.172.38-.38.38a.326.326 0 0 1-.124-.024c.104.156.272.26.468.26h.016zm.78-1.727a.71.71 0 0 0 .452-.656.764.764 0 0 0-.692-.76c.096.464.184.924.24 1.416zm-1.548-.924c0 .54.516.988 1.056.988.112 0 .22-.008.328-.024-.056-.508-.148-.98-.252-1.456-.316.032-.496.244-.496.476 0 .176.1.364.324.492.02.02.028.04.028.06 0 .044-.04.088-.088.088-.012 0-.024-.004-.036-.008-.32-.172-.468-.46-.468-.74 0-.352.232-.696.64-.788a15.048 15.048 0 0 0-.184-.7c-.428.484-.852.972-.852 1.612zm1.044 1.16c-.752 0-1.332-.688-1.332-1.496 0-.708.524-1.224.992-1.764a4.47 4.47 0 0 1-.18-.76 5.429 5.429 0 0 1-.028-.624c0-.46.22-.896.596-1.168a.06.06 0 0 1 .08 0c.284.336.532.98.532 1.432 0 .572-.344 1.02-.72 1.456.084.272.156.552.224.828.016 0 .036-.004.052-.004.62 0 1.024.512 1.024 1.044 0 .304-.132.616-.428.84a.905.905 0 0 1-.292.144c.012.14.02.28.02.42 0 .076-.004.156-.008.232-.028.476-.352.9-.808.912l.004-.172c.372-.008.612-.368.636-.764a3.775 3.775 0 0 0-.008-.588c-.116.02-.232.032-.356.032zm.372-4.712c0-.22-.016-.316-.08-.516a1.153 1.153 0 0 0-.648 1.036c0 .296.072.532.144.776.32-.388.584-.792.584-1.296z"/><a xlink:href="textedit:///home/mike/code/lilypond-scripts/piano-scales/c-major-scale-right-hand.ly:14:7:8" style="color:inherit"><path fill="currentColor" d="M14.88 2.027h.285c0 .114.07.22.178.22.022 0 .031.018.031.033s-.009.03-.03.03c-.109 0-.214-.03-.322-.03s-.211.03-.319.03c-.022 0-.033-.015-.033-.03s.011-.033.033-.033c.108 0 .176-.106.176-.22zm-.285-.266.284-.55c.007-.016.029-.007.046 0 .031.013.062.03.097.03s.068-.017.1-.03l.008-.002c.018 0 .035.02.035.046v.772h-.286v-.473c0-.033-.024-.05-.044-.05-.01 0-.02.004-.024.015l-.145.28c-.01.015-.02.019-.033.019-.02 0-.042-.015-.042-.037 0-.007 0-.014.004-.02z"/></a><a xlink:href="textedit:///home/mike/code/lilypond-scripts/piano-scales/c-major-scale-right-hand.ly:14:4:5" style="color:inherit"><path fill="currentColor" d="M15.208 7.317c.22 0 .432.112.432.356 0 .284-.22.484-.408.596a.908.908 0 0 1-.464.136c-.22 0-.432-.112-.432-.356 0-.284.22-.484.408-.596.14-.084.3-.136.464-.136z"/></a><rect width=".13" height="2.542" x="-.065" y="-2.728" fill="currentColor" ry=".04" transform="translate(32.975 4.86)"/><a xlink:href="textedit:///home/mike/code/lilypond-scripts/piano-scales/c-major-scale-right-hand.ly:14:24:25" style="color:inherit"><path fill="currentColor" d="M32.608 4.317c.22 0 .432.112.432.356 0 .284-.22.484-.408.596a.908.908 0 0 1-.464.136c-.22 0-.432-.112-.432-.356 0-.284.22-.484.408-.596.14-.084.3-.136.464-.136z"/></a><rect width=".13" height="2.776" x="-.065" y="-2.462" fill="currentColor" ry=".04" transform="translate(30.075 4.86)"/><a xlink:href="textedit:///home/mike/code/lilypond-scripts/piano-scales/c-major-scale-right-hand.ly:14:22:23" style="color:inherit"><path fill="currentColor" d="M29.708 4.817c.22 0 .432.112.432.356 0 .284-.22.484-.408.596a.908.908 0 0 1-.464.136c-.22 0-.432-.112-.432-.356 0-.284.22-.484.408-.596.14-.084.3-.136.464-.136z"/></a><a xlink:href="textedit:///home/mike/code/lilypond-scripts/piano-scales/c-major-scale-right-hand.ly:14:16:17" style="color:inherit"><path fill="currentColor" d="M23.908 5.817c.22 0 .432.112.432.356 0 .284-.22.484-.408.596a.908.908 0 0 1-.464.136c-.22 0-.432-.112-.432-.356 0-.284.22-.484.408-.596.14-.084.3-.136.464-.136z"/></a><rect width=".13" height="3.01" x="-.065" y="-2.196" fill="currentColor" ry=".04" transform="translate(27.175 4.86)"/><a xlink:href="textedit:///home/mike/code/lilypond-scripts/piano-scales/c-major-scale-right-hand.ly:14:20:21" style="color:inherit"><path fill="currentColor" d="M26.808 5.317c.22 0 .432.112.432.356 0 .284-.22.484-.408.596a.908.908 0 0 1-.464.136c-.22 0-.432-.112-.432-.356 0-.284.22-.484.408-.596.14-.084.3-.136.464-.136z"/></a><rect width=".13" height="2.497" x="-.065" y="-1.183" fill="currentColor" ry=".04" transform="translate(24.275 4.86)"/><a xlink:href="textedit:///home/mike/code/lilypond-scripts/piano-scales/c-major-scale-right-hand.ly:14:17:18" style="color:inherit"><path fill="currentColor" d="M23.58 2.027h.285c0 .114.07.22.178.22.022 0 .031.018.031.033s-.009.03-.03.03c-.108 0-.214-.03-.322-.03s-.211.03-.319.03c-.022 0-.033-.015-.033-.03s.011-.033.033-.033c.108 0 .176-.106.176-.22zm-.285-.266.284-.55c.007-.016.029-.007.046 0 .031.013.062.03.097.03s.068-.017.1-.03l.008-.002c.018 0 .035.02.035.046v.772h-.286v-.473c0-.033-.024-.05-.044-.05-.01 0-.02.004-.024.015l-.145.28c-.01.015-.02.019-.033.019-.02 0-.042-.015-.042-.037 0-.007 0-.014.004-.02z"/></a></svg>