<svg xmlns="http://www.w3.org/2000/svg" width="550.224" height="105.26" version="1.2" viewBox="7.364 -0.021 82.844 15.85"><style></style><path stroke="currentColor" stroke-linecap="round" stroke-linejoin="round" stroke-width=".1" d="M8.586 5.779h81.622M8.586 4.779h81.622M8.586 3.779h81.622M8.586 2.779h81.622M8.586 1.779h81.622"/><rect width="1.956" height=".2" x="86.228" y="-.1" fill="currentColor" ry=".1" transform="translate(0 6.779)"/><rect width="1.956" height=".2" x="86.228" y="-.1" fill="currentColor" ry=".1" transform="translate(0 7.779)"/><rect width="1.956" height=".2" x="83.724" y="-.1" fill="currentColor" ry=".1" transform="translate(0 6.779)"/><rect width="1.956" height=".2" x="83.724" y="-.1" fill="currentColor" ry=".1" transform="translate(0 7.779)"/><rect width="1.956" height=".2" x="81.219" y="-.1" fill="currentColor" ry=".1" transform="translate(0 6.779)"/><rect width="1.956" height=".2" x="78.715" y="-.1" fill="currentColor" ry=".1" transform="translate(0 6.779)"/><rect width="1.956" height=".2" x="23.622" y="-.1" fill="currentColor" ry=".1" transform="translate(0 6.779)"/><rect width="1.956" height=".2" x="21.118" y="-.1" fill="currentColor" ry=".1" transform="translate(0 6.779)"/><rect width="1.956" height=".2" x="18.614" y="-.1" fill="currentColor" ry=".1" transform="translate(0 6.779)"/><rect width="1.956" height=".2" x="18.614" y="-.1" fill="currentColor" ry=".1" transform="translate(0 7.779)"/><rect width="1.956" height=".2" x="16.11" y="-.1" fill="currentColor" ry=".1" transform="translate(0 6.779)"/><rect width="1.956" height=".2" x="16.11" y="-.1" fill="currentColor" ry=".1" transform="translate(0 7.779)"/><rect width="1.956" height=".2" x="61.204" y="-.1" fill="currentColor" ry=".1" transform="translate(0 9.779)"/><rect width="1.956" height=".2" x="58.7" y="-.1" fill="currentColor" ry=".1" transform="translate(0 9.779)"/><rect width="1.956" height=".2" x="56.195" y="-.1" fill="currentColor" ry=".1" transform="translate(0 8.779)"/><rect width="1.956" height=".2" x="56.195" y="-.1" fill="currentColor" ry=".1" transform="translate(0 9.779)"/><rect width="1.956" height=".2" x="53.691" y="-.1" fill="currentColor" ry=".1" transform="translate(0 8.779)"/><rect width="1.956" height=".2" x="53.691" y="-.1" fill="currentColor" ry=".1" transform="translate(0 9.779)"/><rect width="1.956" height=".2" x="51.187" y="-.1" fill="currentColor" ry=".1" transform="translate(0 7.779)"/><rect width="1.956" height=".2" x="51.187" y="-.1" fill="currentColor" ry=".1" transform="translate(0 8.779)"/><rect width="1.956" height=".2" x="51.187" y="-.1" fill="currentColor" ry=".1" transform="translate(0 9.779)"/><rect width="1.956" height=".2" x="48.683" y="-.1" fill="currentColor" ry=".1" transform="translate(0 8.779)"/><rect width="1.956" height=".2" x="48.683" y="-.1" fill="currentColor" ry=".1" transform="translate(0 9.779)"/><rect width="1.956" height=".2" x="46.179" y="-.1" fill="currentColor" ry=".1" transform="translate(0 8.779)"/><rect width="1.956" height=".2" x="46.179" y="-.1" fill="currentColor" ry=".1" transform="translate(0 9.779)"/><rect width="1.956" height=".2" x="43.674" y="-.1" fill="currentColor" ry=".1" transform="translate(0 9.779)"/><rect width="1.956" height=".2" x="41.17" y="-.1" fill="currentColor" ry=".1" transform="translate(0 9.779)"/><path stroke="currentColor" stroke-linecap="round" stroke-linejoin="round" stroke-width=".1" d="M8.586 14.779h81.622M8.586 13.779h81.622M8.586 12.779h81.622M8.586 11.779h81.622M8.586 10.779h81.622"/><rect width=".13" height="2.94" x="-.065" y="-2.814" fill="currentColor" ry=".04" transform="translate(61.595 12.779)"/><rect width=".13" height="2.502" x="-.065" y="-2.314" fill="currentColor" ry=".04" transform="translate(64.1 12.779)"/><path fill="currentColor" d="M64.906 3.235c.22 0 .432.112.432.356 0 .284-.22.484-.408.596a.908.908 0 0 1-.464.136c-.22 0-.432-.112-.432-.356 0-.284.22-.484.408-.596.14-.084.3-.136.464-.136zM64.906 9.735c.22 0 .432.112.432.356 0 .284-.22.484-.408.596a.908.908 0 0 1-.464.136c-.22 0-.432-.112-.432-.356 0-.284.22-.484.408-.596.14-.084.3-.136.464-.136z"/><rect width=".13" height="2.617" x="-.065" y=".186" fill="currentColor" ry=".04" transform="translate(64.1 3.779)"/><rect width=".13" height="2.852" x="-.065" y="-.314" fill="currentColor" ry=".04" transform="translate(61.595 3.779)"/><path fill="currentColor" d="M62.402 9.235c.22 0 .432.112.432.356 0 .284-.22.484-.408.596a.908.908 0 0 1-.464.136c-.22 0-.432-.112-.432-.356 0-.284.22-.484.408-.596.14-.084.3-.136.464-.136zM62.402 2.735c.22 0 .432.112.432.356 0 .284-.22.484-.408.596a.908.908 0 0 1-.464.136c-.22 0-.432-.112-.432-.356 0-.284.22-.484.408-.596.14-.084.3-.136.464-.136z"/><rect width=".13" height="3.378" x="-.065" y="-3.314" fill="currentColor" ry=".04" transform="translate(59.09 12.779)"/><path fill="currentColor" d="M52.385 7.235c.22 0 .432.112.432.356 0 .284-.22.484-.408.596a.908.908 0 0 1-.464.136c-.22 0-.432-.112-.432-.356 0-.284.22-.484.408-.596.14-.084.3-.136.464-.136z"/><rect width=".13" height="2.84" x="-.065" y="-1.314" fill="currentColor" ry=".04" transform="translate(69.098 12.779)"/><rect width=".13" height="2.668" x="-.065" y="-1.854" fill="currentColor" ry=".04" transform="translate(70.273 3.779)"/><path fill="currentColor" d="M69.905 10.735c.22 0 .432.112.432.356 0 .284-.22.484-.408.596a.908.908 0 0 1-.464.136c-.22 0-.432-.112-.432-.356 0-.284.22-.484.408-.596.14-.084.3-.136.464-.136zM69.905 4.235c.22 0 .432.112.432.356 0 .284-.22.484-.408.596a.908.908 0 0 1-.464.136c-.22 0-.432-.112-.432-.356 0-.284.22-.484.408-.596.14-.084.3-.136.464-.136z"/><rect width=".13" height="3.012" x="-.065" y="-1.814" fill="currentColor" ry=".04" transform="translate(66.594 12.779)"/><rect width=".13" height="2.495" x="-.065" y="-2.182" fill="currentColor" ry=".04" transform="translate(67.768 3.779)"/><path fill="currentColor" d="M67.401 10.235c.22 0 .432.112.432.356 0 .284-.22.484-.408.596a.908.908 0 0 1-.464.136c-.22 0-.432-.112-.432-.356 0-.284.22-.484.408-.596.14-.084.3-.136.464-.136zM67.401 3.735c.22 0 .432.112.432.356 0 .284-.22.484-.408.596a.908.908 0 0 1-.464.136c-.22 0-.432-.112-.432-.356 0-.284.22-.484.408-.596.14-.084.3-.136.464-.136z"/><rect width=".13" height="2.627" x="-.065" y="-1.814" fill="currentColor" ry=".04" transform="translate(54.082 3.779)"/><rect width=".13" height="3.321" x="-.065" y="-1.314" fill="currentColor" ry=".04" transform="translate(56.587 3.779)"/><path fill="currentColor" d="M57.394 8.235c.22 0 .432.112.432.356 0 .284-.22.484-.408.596a.908.908 0 0 1-.464.136c-.22 0-.432-.112-.432-.356 0-.284.22-.484.408-.596.14-.084.3-.136.464-.136zM57.394 1.735c.22 0 .432.112.432.356 0 .284-.22.484-.408.596a.908.908 0 0 1-.464.136c-.22 0-.432-.112-.432-.356 0-.284.22-.484.408-.596.14-.084.3-.136.464-.136z"/><rect width=".13" height="4.314" x="-.065" y="-4.314" fill="currentColor" ry=".04" transform="translate(54.082 12.779)"/><path fill="currentColor" d="M54.89 7.735c.22 0 .431.112.431.356 0 .284-.22.484-.408.596a.908.908 0 0 1-.464.136c-.22 0-.432-.112-.432-.356 0-.284.22-.484.408-.596.14-.084.3-.136.464-.136zM54.89 1.235c.22 0 .431.112.431.356 0 .284-.22.484-.408.596a.908.908 0 0 1-.464.136c-.22 0-.432-.112-.432-.356 0-.284.22-.484.408-.596.14-.084.3-.136.464-.136z"/><rect width=".13" height="4.814" x="-.065" y="-4.814" fill="currentColor" ry=".04" transform="translate(51.578 12.779)"/><rect width=".13" height="3.252" x="-.065" y="-2.314" fill="currentColor" ry=".04" transform="translate(51.578 3.779)"/><path fill="currentColor" stroke="currentColor" stroke-linecap="round" stroke-linejoin="round" stroke-width=".08" d="M25.213 3.389v.4l-7.563.19v-.4z"/><rect width=".13" height="3.086" x="-.065" y="-.814" fill="currentColor" ry=".04" transform="translate(59.09 3.779)"/><path fill="currentColor" d="M59.898 8.735c.22 0 .432.112.432.356 0 .284-.22.484-.408.596a.908.908 0 0 1-.464.136c-.22 0-.432-.112-.432-.356 0-.284.22-.484.408-.596.14-.084.3-.136.464-.136zM59.898 2.235c.22 0 .432.112.432.356 0 .284-.22.484-.408.596a.908.908 0 0 1-.464.136c-.22 0-.432-.112-.432-.356 0-.284.22-.484.408-.596.14-.084.3-.136.464-.136z"/><rect width=".13" height="3.816" x="-.065" y="-3.814" fill="currentColor" ry=".04" transform="translate(56.587 12.779)"/><rect width=".13" height="3.816" x="-.065" y="-.002" fill="currentColor" ry=".04" transform="translate(85.289 3.779)"/><path fill="currentColor" d="M84.922 13.735c.22 0 .432.112.432.356 0 .284-.22.484-.408.596a.908.908 0 0 1-.464.136c-.22 0-.432-.112-.432-.356 0-.284.22-.484.408-.596.14-.084.3-.136.464-.136zM84.922 7.235c.22 0 .432.112.432.356 0 .284-.22.484-.408.596a.908.908 0 0 1-.464.136c-.22 0-.432-.112-.432-.356 0-.284.22-.484.408-.596.14-.084.3-.136.464-.136z"/><rect width=".13" height="3.086" x="-.065" y="-2.272" fill="currentColor" ry=".04" transform="translate(82.785 12.779)"/><rect width=".13" height="3.321" x="-.065" y="-2.007" fill="currentColor" ry=".04" transform="translate(85.289 12.779)"/><rect width=".13" height="3.378" x="-.065" y="-.064" fill="currentColor" ry=".04" transform="translate(82.785 3.779)"/><path fill="currentColor" d="M82.417 13.235c.22 0 .432.112.432.356 0 .284-.22.484-.408.596a.908.908 0 0 1-.464.136c-.22 0-.432-.112-.432-.356 0-.284.22-.484.408-.596.14-.084.3-.136.464-.136zM82.417 6.735c.22 0 .432.112.432.356 0 .284-.22.484-.408.596a.908.908 0 0 1-.464.136c-.22 0-.432-.112-.432-.356 0-.284.22-.484.408-.596.14-.084.3-.136.464-.136z"/><rect width=".13" height="2.852" x="-.065" y="-2.538" fill="currentColor" ry=".04" transform="translate(80.28 12.779)"/><path fill="currentColor" stroke="currentColor" stroke-linecap="round" stroke-linejoin="round" stroke-width=".08" d="M25.213 10.389v.4l-7.563 1v-.4zM35.239 1.769v.4l-7.563.81v-.4zM34.064 14.579v.4l-7.562.81v-.4zM44.09 5.769v.4l-7.562.81v-.4zM44.09 12.769v.4l-7.562.62v-.4zM54.107 4.389v.4l-7.562.38v-.4zM54.107 12.579v.4h-7.562v-.4zM64.124 6.389v.4l-7.562-.81v-.4zM64.124 12.769v.4l-7.562-.19v-.4zM75.306 2.389v.4l-7.563-1v-.4zM74.132 14.769v.4l-7.563-1v-.4zM85.314 3.579v.4l-7.563-.19v-.4zM85.314 10.579v.4l-7.563-.81v-.4z"/><rect width=".13" height="3.314" x="-.065" y="-1.5" fill="currentColor" ry=".04" transform="translate(87.793 12.779)"/><rect width=".13" height="4.314" x="-.065" fill="currentColor" ry=".04" transform="translate(87.793 3.779)"/><path fill="currentColor" d="M87.426 14.235c.22 0 .432.112.432.356 0 .284-.22.484-.408.596a.908.908 0 0 1-.464.136c-.22 0-.432-.112-.432-.356 0-.284.22-.484.408-.596.14-.084.3-.136.464-.136zM87.426 7.735c.22 0 .432.112.432.356 0 .284-.22.484-.408.596a.908.908 0 0 1-.464.136c-.22 0-.432-.112-.432-.356 0-.284.22-.484.408-.596.14-.084.3-.136.464-.136z"/><rect width=".13" height="3.012" x="-.065" y="-1.198" fill="currentColor" ry=".04" transform="translate(75.281 3.779)"/><rect width=".13" height="2.502" x="-.065" y="-.188" fill="currentColor" ry=".04" transform="translate(77.776 3.779)"/><path fill="currentColor" d="M77.409 12.235c.22 0 .432.112.432.356 0 .284-.22.484-.408.596a.908.908 0 0 1-.464.136c-.22 0-.432-.112-.432-.356 0-.284.22-.484.408-.596.14-.084.3-.136.464-.136zM77.409 5.735c.22 0 .432.112.432.356 0 .284-.22.484-.408.596a.908.908 0 0 1-.464.136c-.22 0-.432-.112-.432-.356 0-.284.22-.484.408-.596.14-.084.3-.136.464-.136z"/><rect width=".13" height="2.495" x="-.065" y="-.314" fill="currentColor" ry=".04" transform="translate(74.107 12.779)"/><path fill="currentColor" d="M74.914 11.735c.22 0 .432.112.432.356 0 .284-.22.484-.408.596a.908.908 0 0 1-.464.136c-.22 0-.432-.112-.432-.356 0-.284.22-.484.408-.596.14-.084.3-.136.464-.136zM74.914 5.235c.22 0 .432.112.432.356 0 .284-.22.484-.408.596a.908.908 0 0 1-.464.136c-.22 0-.432-.112-.432-.356 0-.284.22-.484.408-.596.14-.084.3-.136.464-.136z"/><rect width=".13" height="2.668" x="-.065" y="-.814" fill="currentColor" ry=".04" transform="translate(71.603 12.779)"/><rect width=".13" height="2.84" x="-.065" y="-1.526" fill="currentColor" ry=".04" transform="translate(72.777 3.779)"/><path fill="currentColor" d="M72.41 11.235c.22 0 .432.112.432.356 0 .284-.22.484-.408.596a.908.908 0 0 1-.464.136c-.22 0-.432-.112-.432-.356 0-.284.22-.484.408-.596.14-.084.3-.136.464-.136z"/><rect width=".13" height="2.94" x="-.065" y="-.126" fill="currentColor" ry=".04" transform="translate(80.28 3.779)"/><path fill="currentColor" d="M79.913 12.735c.22 0 .432.112.432.356 0 .284-.22.484-.408.596a.908.908 0 0 1-.464.136c-.22 0-.432-.112-.432-.356 0-.284.22-.484.408-.596.14-.084.3-.136.464-.136zM79.913 6.235c.22 0 .432.112.432.356 0 .284-.22.484-.408.596a.908.908 0 0 1-.464.136c-.22 0-.432-.112-.432-.356 0-.284.22-.484.408-.596.14-.084.3-.136.464-.136zM72.41 4.735c.22 0 .432.112.432.356 0 .284-.22.484-.408.596a.908.908 0 0 1-.464.136c-.22 0-.432-.112-.432-.356 0-.284.22-.484.408-.596.14-.084.3-.136.464-.136z"/><rect width=".13" height="2.617" x="-.065" y="-2.803" fill="currentColor" ry=".04" transform="translate(77.776 12.779)"/><rect width=".13" height="2.852" x="-.065" y="-.314" fill="currentColor" ry=".04" transform="translate(29.031 12.779)"/><rect width=".13" height="3.086" x="-.065" y="-1.272" fill="currentColor" ry=".04" transform="translate(30.205 3.779)"/><path fill="currentColor" d="M29.838 11.735c.22 0 .432.112.432.356 0 .284-.22.484-.408.596a.908.908 0 0 1-.464.136c-.22 0-.432-.112-.432-.356 0-.284.22-.484.408-.596.14-.084.3-.136.464-.136zM29.838 5.235c.22 0 .432.112.432.356 0 .284-.22.484-.408.596a.908.908 0 0 1-.464.136c-.22 0-.432-.112-.432-.356 0-.284.22-.484.408-.596.14-.084.3-.136.464-.136z"/><rect width=".13" height="4.316" x="-.065" y="-.002" fill="currentColor" ry=".04" transform="translate(17.675 3.779)"/><rect width=".13" height="2.617" x="-.065" y=".186" fill="currentColor" ry=".04" transform="translate(26.527 12.779)"/><rect width=".13" height="3.321" x="-.065" y="-1.007" fill="currentColor" ry=".04" transform="translate(27.701 3.779)"/><path fill="currentColor" d="M27.334 12.235c.22 0 .432.112.432.356 0 .284-.22.484-.408.596a.908.908 0 0 1-.464.136c-.22 0-.432-.112-.432-.356 0-.284.22-.484.408-.596.14-.084.3-.136.464-.136zM17.308 14.235c.22 0 .432.112.432.356 0 .284-.22.484-.408.596a.908.908 0 0 1-.464.136c-.22 0-.432-.112-.432-.356 0-.284.22-.484.408-.596.14-.084.3-.136.464-.136z"/><rect width=".13" height="3.321" x="-.065" y="-1.314" fill="currentColor" ry=".04" transform="translate(34.04 12.779)"/><rect width=".13" height="2.617" x="-.065" y="-1.803" fill="currentColor" ry=".04" transform="translate(35.214 3.779)"/><path fill="currentColor" d="M34.846 10.735c.22 0 .432.112.432.356 0 .284-.22.484-.408.596a.908.908 0 0 1-.464.136c-.22 0-.432-.112-.432-.356 0-.284.22-.484.408-.596.14-.084.3-.136.464-.136zM34.846 4.235c.22 0 .432.112.432.356 0 .284-.22.484-.408.596a.908.908 0 0 1-.464.136c-.22 0-.432-.112-.432-.356 0-.284.22-.484.408-.596.14-.084.3-.136.464-.136zM11.564 12.279c0-.112.092-.204.204-.204s.204.092.204.204-.092.204-.204.204-.204-.092-.204-.204zm0-1c0-.112.092-.204.204-.204s.204.092.204.204-.092.204-.204.204-.204-.092-.204-.204zm-1.3-.552c.688 0 1.172.352 1.172 1.004 0 1.052-1.052 1.656-2.064 2.084a.049.049 0 0 1-.036.016.053.053 0 0 1-.052-.052c0-.012.004-.024.016-.036.808-.472 1.648-1.06 1.648-1.972 0-.48-.252-.94-.684-.94-.296 0-.516.216-.616.504a.323.323 0 0 1 .136-.032c.22 0 .4.18.4.4 0 .232-.176.424-.4.424-.24 0-.448-.188-.448-.424 0-.532.408-.976.928-.976zM27.334 5.735c.22 0 .432.112.432.356 0 .284-.22.484-.408.596a.908.908 0 0 1-.464.136c-.22 0-.432-.112-.432-.356 0-.284.22-.484.408-.596.14-.084.3-.136.464-.136zM52.385.735c.22 0 .432.112.432.356 0 .284-.22.484-.408.596a.908.908 0 0 1-.464.136c-.22 0-.432-.112-.432-.356 0-.284.22-.484.408-.596.14-.084.3-.136.464-.136z"/><rect width=".13" height="3.086" x="-.065" y="-.814" fill="currentColor" ry=".04" transform="translate(31.535 12.779)"/><rect width=".13" height="2.852" x="-.065" y="-1.538" fill="currentColor" ry=".04" transform="translate(32.71 3.779)"/><path fill="currentColor" d="M32.342 11.235c.22 0 .432.112.432.356 0 .284-.22.484-.408.596a.908.908 0 0 1-.464.136c-.22 0-.432-.112-.432-.356 0-.284.22-.484.408-.596.14-.084.3-.136.464-.136zM32.342 4.735c.22 0 .432.112.432.356 0 .284-.22.484-.408.596a.908.908 0 0 1-.464.136c-.22 0-.432-.112-.432-.356 0-.284.22-.484.408-.596.14-.084.3-.136.464-.136zM13.7 13.027c0 .04-.032.076-.072.076s-.076-.036-.076-.076v-.58l-.332.124v.632c0 .04-.036.076-.076.076s-.072-.036-.072-.076v-.58l-.128.048c-.008.004-.02.004-.028.004a.08.08 0 0 1-.08-.08v-.24c0-.032.02-.064.052-.076l.184-.064v-.64l-.128.044c-.008.004-.02.004-.028.004a.08.08 0 0 1-.08-.08v-.24c0-.032.02-.06.052-.072l.184-.068v-.632c0-.04.032-.076.072-.076s.076.036.076.076v.58l.332-.124v-.632c0-.04.036-.076.076-.076s.072.036.072.076v.58l.128-.048c.008-.004.02-.004.028-.004a.08.08 0 0 1 .08.08v.24c0 .032-.02.064-.052.076l-.184.064v.64l.128-.044c.008-.004.02-.004.028-.004a.08.08 0 0 1 .08.08v.24c0 .032-.02.06-.052.072l-.184.068v.632zm-.48-1.508v.64l.332-.12v-.64zM19.812 13.735c.22 0 .432.112.432.356 0 .284-.22.484-.408.596a.908.908 0 0 1-.464.136c-.22 0-.432-.112-.432-.356 0-.284.22-.484.408-.596.14-.084.3-.136.464-.136zM22.316 6.735c.22 0 .432.112.432.356 0 .284-.22.484-.408.596a.908.908 0 0 1-.464.136c-.22 0-.432-.112-.432-.356 0-.284.22-.484.408-.596.14-.084.3-.136.464-.136z"/><rect width=".13" height="3.012" x="-.065" y="-1.198" fill="currentColor" ry=".04" transform="translate(17.675 12.779)"/><rect width=".13" height="2.84" x="-.065" y="-1.526" fill="currentColor" ry=".04" transform="translate(20.18 12.779)"/><rect width=".13" height="3.878" x="-.065" y="-.064" fill="currentColor" ry=".04" transform="translate(20.18 3.779)"/><path fill="currentColor" d="M22.316 13.235c.22 0 .432.112.432.356 0 .284-.22.484-.408.596a.908.908 0 0 1-.464.136c-.22 0-.432-.112-.432-.356 0-.284.22-.484.408-.596.14-.084.3-.136.464-.136zM19.812 7.235c.22 0 .432.112.432.356 0 .284-.22.484-.408.596a.908.908 0 0 1-.464.136c-.22 0-.432-.112-.432-.356 0-.284.22-.484.408-.596.14-.084.3-.136.464-.136zM24.82 6.235c.22 0 .432.112.432.356 0 .284-.22.484-.408.596a.908.908 0 0 1-.464.136c-.22 0-.432-.112-.432-.356 0-.284.22-.484.408-.596.14-.084.3-.136.464-.136z"/><rect width=".13" height="2.495" x="-.065" y="-2.182" fill="currentColor" ry=".04" transform="translate(25.188 12.779)"/><rect width=".13" height="3.002" x="-.065" y="-.188" fill="currentColor" ry=".04" transform="translate(25.188 3.779)"/><path fill="currentColor" d="M24.82 12.735c.22 0 .432.112.432.356 0 .284-.22.484-.408.596a.908.908 0 0 1-.464.136c-.22 0-.432-.112-.432-.356 0-.284.22-.484.408-.596.14-.084.3-.136.464-.136z"/><rect width=".13" height="2.668" x="-.065" y="-1.854" fill="currentColor" ry=".04" transform="translate(22.683 12.779)"/><rect width=".13" height="3.44" x="-.065" y="-.126" fill="currentColor" ry=".04" transform="translate(22.683 3.779)"/><rect width=".13" height="3.011" x="-.065" y="-.814" fill="currentColor" ry=".04" transform="translate(44.065 3.779)"/><rect width=".13" height="2.501" x="-.065" y="-1.314" fill="currentColor" ry=".04" transform="translate(46.57 3.779)"/><path fill="currentColor" d="M47.377 8.235c.22 0 .432.112.432.356 0 .284-.22.484-.408.596a.908.908 0 0 1-.464.136c-.22 0-.432-.112-.432-.356 0-.284.22-.484.408-.596.14-.084.3-.136.464-.136zM47.377 1.735c.22 0 .432.112.432.356 0 .284-.22.484-.408.596a.908.908 0 0 1-.464.136c-.22 0-.432-.112-.432-.356 0-.284.22-.484.408-.596.14-.084.3-.136.464-.136z"/><rect width=".16" height="13.1" y="-6.55" fill="currentColor" ry=".05" transform="translate(8.476 8.279)"/><rect width=".13" height="3.509" x="-.065" y="-3.314" fill="currentColor" ry=".04" transform="translate(44.065 12.779)"/><path fill="currentColor" d="M44.872 8.735c.22 0 .432.112.432.356 0 .284-.22.484-.408.596a.908.908 0 0 1-.464.136c-.22 0-.432-.112-.432-.356 0-.284.22-.484.408-.596.14-.084.3-.136.464-.136zM44.872 2.235c.22 0 .432.112.432.356 0 .284-.22.484-.408.596a.908.908 0 0 1-.464.136c-.22 0-.432-.112-.432-.356 0-.284.22-.484.408-.596.14-.084.3-.136.464-.136z"/><rect width=".13" height="3.212" x="-.065" y="-2.814" fill="currentColor" ry=".04" transform="translate(41.561 12.779)"/><path fill="currentColor" d="M49.88 7.735c.22 0 .433.112.433.356 0 .284-.22.484-.408.596a.908.908 0 0 1-.464.136c-.22 0-.432-.112-.432-.356 0-.284.22-.484.408-.596.14-.084.3-.136.464-.136z"/><rect width=".13" height="4.314" x="-.065" y="-4.314" fill="currentColor" ry=".04" transform="translate(49.074 12.779)"/><rect width=".13" height="2.876" x="-.065" y="-1.814" fill="currentColor" ry=".04" transform="translate(49.074 3.779)"/><rect width=".13" height="2.776" x="-.065" y="-.314" fill="currentColor" ry=".04" transform="translate(41.561 3.779)"/><path fill="currentColor" d="M49.88 1.235c.22 0 .433.112.433.356 0 .284-.22.484-.408.596a.908.908 0 0 1-.464.136c-.22 0-.432-.112-.432-.356 0-.284.22-.484.408-.596.14-.084.3-.136.464-.136zM7.42 12.863c0-1.068.432-2.112.432-3.12 0-.54-.132-1.044-.516-1.44-.012-.012-.012-.012-.012-.024s0-.012.012-.024c.384-.396.516-.9.516-1.44 0-1.008-.432-2.052-.432-3.12 0-.756.18-1.464.708-2.004.06-.06.156.036.096.096-.396.396-.516.9-.516 1.44 0 .996.408 2.016.408 3.06 0 .744-.18 1.452-.696 1.992.516.54.696 1.248.696 1.992 0 1.044-.408 2.064-.408 3.06 0 .54.12 1.044.516 1.44.06.06-.036.156-.096.096-.528-.54-.708-1.248-.708-2.004z"/><rect width=".13" height="3.814" x="-.065" y="-3.814" fill="currentColor" ry=".04" transform="translate(46.57 12.779)"/><path fill="currentColor" d="M10.4 7.319h-.024a.783.783 0 0 1-.78-.788c0-.232.212-.412.448-.412.216 0 .38.188.38.412 0 .208-.172.38-.38.38a.326.326 0 0 1-.124-.024c.104.156.272.26.468.26h.016zm.78-1.728a.71.71 0 0 0 .452-.656.764.764 0 0 0-.692-.76c.096.464.184.924.24 1.416zm-1.548-.924c0 .54.516.988 1.056.988.112 0 .22-.008.328-.024-.056-.508-.148-.98-.252-1.456-.316.032-.496.244-.496.476 0 .176.1.364.324.492.02.02.028.04.028.06 0 .044-.04.088-.088.088-.012 0-.024-.004-.036-.008-.32-.172-.468-.46-.468-.74 0-.352.232-.696.64-.788a15.048 15.048 0 0 0-.184-.7c-.428.484-.852.972-.852 1.612zm1.044 1.16c-.752 0-1.332-.688-1.332-1.496 0-.708.524-1.224.992-1.764a4.47 4.47 0 0 1-.18-.76 5.429 5.429 0 0 1-.028-.624c0-.46.22-.896.596-1.168a.06.06 0 0 1 .08 0c.284.336.532.98.532 1.432 0 .572-.344 1.02-.72 1.456.084.272.156.552.224.828.016 0 .036-.004.052-.004.62 0 1.024.512 1.024 1.044 0 .304-.132.616-.428.84a.905.905 0 0 1-.292.144c.012.14.02.28.02.42 0 .076-.004.156-.008.232-.028.476-.352.9-.808.912l.004-.172c.372-.008.612-.368.636-.764a3.775 3.775 0 0 0-.008-.588c-.116.02-.232.032-.356.032zm.372-4.712c0-.22-.016-.316-.08-.516a1.153 1.153 0 0 0-.648 1.036c0 .296.072.532.144.776.32-.388.584-.792.584-1.296z"/><rect width=".13" height="2.619" x="-.065" y="-1.814" fill="currentColor" ry=".04" transform="translate(36.553 12.779)"/><path fill="currentColor" d="M42.368 9.235c.22 0 .432.112.432.356 0 .284-.22.484-.408.596a.908.908 0 0 1-.464.136c-.22 0-.432-.112-.432-.356 0-.284.22-.484.408-.596.14-.084.3-.136.464-.136zM13.7 3.027c0 .04-.032.076-.072.076s-.076-.036-.076-.076v-.58l-.332.124v.632c0 .04-.036.076-.076.076s-.072-.036-.072-.076v-.58l-.128.048c-.008.004-.02.004-.028.004a.08.08 0 0 1-.08-.08v-.24c0-.032.02-.064.052-.076l.184-.064v-.64l-.128.044c-.008.004-.02.004-.028.004a.08.08 0 0 1-.08-.08v-.24c0-.032.02-.06.052-.072l.184-.068V.531c0-.04.032-.076.072-.076s.076.036.076.076v.58l.332-.124V.355c0-.04.036-.076.076-.076s.072.036.072.076v.58l.128-.048c.008-.004.02-.004.028-.004a.08.08 0 0 1 .08.08v.24c0 .032-.02.064-.052.076l-.184.064v.64l.128-.044c.008-.004.02-.004.028-.004a.08.08 0 0 1 .08.08v.24c0 .032-.02.06-.052.072l-.184.068v.632zm-.48-1.508v.64l.332-.12v-.64z"/><rect width=".13" height="2.307" x="-.065" y=".686" fill="currentColor" ry=".04" transform="translate(36.553 3.779)"/><path fill="currentColor" d="M37.36 10.235c.22 0 .432.112.432.356 0 .284-.22.484-.408.596a.908.908 0 0 1-.464.136c-.22 0-.432-.112-.432-.356 0-.284.22-.484.408-.596.14-.084.3-.136.464-.136zM37.36 3.735c.22 0 .432.112.432.356 0 .284-.22.484-.408.596a.908.908 0 0 1-.464.136c-.22 0-.432-.112-.432-.356 0-.284.22-.484.408-.596.14-.084.3-.136.464-.136zM42.368 2.735c.22 0 .432.112.432.356 0 .284-.22.484-.408.596a.908.908 0 0 1-.464.136c-.22 0-.432-.112-.432-.356 0-.284.22-.484.408-.596.14-.084.3-.136.464-.136z"/><rect width=".13" height="2.916" x="-.065" y="-2.314" fill="currentColor" ry=".04" transform="translate(39.057 12.779)"/><rect width=".13" height="2.542" x="-.065" y=".186" fill="currentColor" ry=".04" transform="translate(39.057 3.779)"/><path fill="currentColor" d="M39.864 9.735c.22 0 .432.112.432.356 0 .284-.22.484-.408.596a.908.908 0 0 1-.464.136c-.22 0-.432-.112-.432-.356 0-.284.22-.484.408-.596.14-.084.3-.136.464-.136zM39.864 3.235c.22 0 .432.112.432.356 0 .284-.22.484-.408.596a.908.908 0 0 1-.464.136c-.22 0-.432-.112-.432-.356 0-.284.22-.484.408-.596.14-.084.3-.136.464-.136zM17.308 7.735c.22 0 .432.112.432.356 0 .284-.22.484-.408.596a.908.908 0 0 1-.464.136c-.22 0-.432-.112-.432-.356 0-.284.22-.484.408-.596.14-.084.3-.136.464-.136z"/></svg>