<svg xmlns="http://www.w3.org/2000/svg" xmlns:xlink="http://www.w3.org/1999/xlink" id="svg218" width="378.024" height="48.185" version="1.2" viewBox="0 0 56.916 7.255"><style id="style2" type="text/css"></style><g id="g6" transform="translate(0 5.544)"><path id="line4" stroke="currentColor" stroke-linecap="round" stroke-linejoin="round" stroke-width=".1" d="M.05 0h56.816"/></g><g id="g10" transform="translate(0 4.544)"><path id="line8" stroke="currentColor" stroke-linecap="round" stroke-linejoin="round" stroke-width=".1" d="M.05 0h56.816"/></g><g id="g14" transform="translate(0 3.544)"><path id="line12" stroke="currentColor" stroke-linecap="round" stroke-linejoin="round" stroke-width=".1" d="M.05 0h56.816"/></g><g id="g18" transform="translate(0 2.544)"><path id="line16" stroke="currentColor" stroke-linecap="round" stroke-linejoin="round" stroke-width=".1" d="M.05 0h56.816"/></g><g id="g22" transform="translate(0 1.544)"><path id="line20" stroke="currentColor" stroke-linecap="round" stroke-linejoin="round" stroke-width=".1" d="M.05 0h56.816"/></g><g id="g26" transform="translate(20.526 3.544)"><rect id="rect24" width=".19" height="4" x="0" y="-2" fill="currentColor" ry="0"/></g><g id="g30" transform="translate(46.706 3.544)"><rect id="rect28" width=".19" height="4" x="0" y="-2" fill="currentColor" ry="0"/></g><g id="g34" transform="translate(33.636 3.544)"><rect id="rect32" width=".19" height="4" x="0" y="-2" fill="currentColor" ry="0"/></g><g id="g38" transform="translate(-8.536 .544)"><rect id="rect36" width="1.956" height=".2" x="39.022" y="-.1" fill="currentColor" ry=".1"/></g><g id="g42" transform="translate(37.965 3.544)"><rect id="rect40" width=".13" height="3.314" x="-.065" y="-1.814" fill="currentColor" ry=".04"/></g><a xlink:href="textedit:///home/mike/code/lilypond-scripts/piano-scales/c-major-scale-left-hand.ly:8:6:7" id="a48" style="color:inherit" transform="translate(-14.226 -3.846)"><g id="g46" transform="translate(52.126 5.39)"><path id="path44" fill="currentColor" d="M218 136c55 0 108-28 108-89 0-71-55-121-102-149-35-21-75-34-116-34C53-136 0-108 0-47 0 24 55 74 102 102c35 21 75 34 116 34z" transform="scale(.004 -.004)"/></g></a><a xlink:href="textedit:///home/mike/code/lilypond-scripts/piano-scales/c-major-scale-left-hand.ly:8:8:9" id="a54" style="color:inherit" transform="translate(-14.226 -3.846)"><g id="g52" transform="translate(55.128 5.89)"><path id="path50" fill="currentColor" d="M218 136c55 0 108-28 108-89 0-71-55-121-102-149-35-21-75-34-116-34C53-136 0-108 0-47 0 24 55 74 102 102c35 21 75 34 116 34z" transform="scale(.004 -.004)"/></g></a><g id="g58" transform="translate(27.875 3.544)"><rect id="rect56" width=".13" height="3.314" x="-.065" y="-2.314" fill="currentColor" ry=".04"/></g><g id="g62" transform="translate(40.967 3.544)"><rect id="rect60" width=".13" height="3.314" x="-.065" y="-1.314" fill="currentColor" ry=".04"/></g><g id="g66" transform="translate(34.962 3.544)"><rect id="rect64" width=".13" height="3.314" x="-.065" y="-2.314" fill="currentColor" ry=".04"/></g><a xlink:href="textedit:///home/mike/code/lilypond-scripts/piano-scales/c-major-scale-left-hand.ly:8:4:5" id="a72" style="color:inherit" transform="translate(-14.226 -3.846)"><g id="g70" transform="translate(49.124 4.89)"><path id="path68" fill="currentColor" d="M218 136c55 0 108-28 108-89 0-71-55-121-102-149-35-21-75-34-116-34C53-136 0-108 0-47 0 24 55 74 102 102c35 21 75 34 116 34z" transform="scale(.004 -.004)"/></g></a><g id="g76" transform="translate(30.877 3.544)"><rect id="rect74" width=".13" height="3.314" x="-.065" y="-2.814" fill="currentColor" ry=".04"/></g><a xlink:href="textedit:///home/mike/code/lilypond-scripts/piano-scales/c-major-scale-left-hand.ly:7:24:25" id="a82" style="color:inherit" transform="translate(-14.226 -3.846)"><g id="g80" transform="translate(45.039 4.39)"><path id="path78" fill="currentColor" d="M218 136c55 0 108-28 108-89 0-71-55-121-102-149-35-21-75-34-116-34C53-136 0-108 0-47 0 24 55 74 102 102c35 21 75 34 116 34z" transform="scale(.004 -.004)"/></g></a><a xlink:href="textedit:///home/mike/code/lilypond-scripts/piano-scales/c-major-scale-left-hand.ly:8:14:15" id="a88" style="color:inherit" transform="translate(-14.226 -3.846)"><g id="g86" transform="translate(65.156 7.39)"><path id="path84" fill="currentColor" d="M218 136c55 0 108-28 108-89 0-71-55-121-102-149-35-21-75-34-116-34C53-136 0-108 0-47 0 24 55 74 102 102c35 21 75 34 116 34z" transform="scale(.004 -.004)"/></g></a><g id="g92" transform="translate(50.995 3.544)"><rect id="rect90" width=".13" height="3.147" x="-.065" y=".186" fill="currentColor" ry=".04"/></g><a xlink:href="textedit:///home/mike/code/lilypond-scripts/piano-scales/c-major-scale-left-hand.ly:8:16:17" id="a98" style="color:inherit" transform="translate(-14.226 -3.846)"><g id="g96" transform="translate(68.14 7.89)"><path id="path94" fill="currentColor" d="M218 136c55 0 108-28 108-89 0-71-55-121-102-149-35-21-75-34-116-34C53-136 0-108 0-47 0 24 55 74 102 102c35 21 75 34 116 34z" transform="scale(.004 -.004)"/></g></a><g id="g102" transform="translate(55.153 3.544)"><rect id="rect100" width=".13" height="3.314" x="-.065" y="-3" fill="currentColor" ry=".04"/></g><g id="g106" transform="translate(47.993 3.544)"><rect id="rect104" width=".13" height="3.314" x="-.065" y="-.314" fill="currentColor" ry=".04"/></g><a xlink:href="textedit:///home/mike/code/lilypond-scripts/piano-scales/c-major-scale-left-hand.ly:8:12:13" id="a112" style="color:inherit" transform="translate(-14.226 -3.846)"><g id="g110" transform="translate(62.154 6.89)"><path id="path108" fill="currentColor" d="M218 136c55 0 108-28 108-89 0-71-55-121-102-149-35-21-75-34-116-34C53-136 0-108 0-47 0 24 55 74 102 102c35 21 75 34 116 34z" transform="scale(.004 -.004)"/></g></a><g id="g116" transform="translate(43.97 3.544)"><rect id="rect114" width=".13" height="3.314" x="-.065" y="-.814" fill="currentColor" ry=".04"/></g><a xlink:href="textedit:///home/mike/code/lilypond-scripts/piano-scales/c-major-scale-left-hand.ly:8:10:11" id="a122" style="color:inherit" transform="translate(-14.226 -3.846)"><g id="g120" transform="translate(58.13 6.39)"><path id="path118" fill="currentColor" d="M218 136c55 0 108-28 108-89 0-71-55-121-102-149-35-21-75-34-116-34C53-136 0-108 0-47 0 24 55 74 102 102c35 21 75 34 116 34z" transform="scale(.004 -.004)"/></g></a><g id="g126" transform="translate(5 3.544)"><path id="path124" fill="currentColor" d="M359 27c-49 0-75 42-75 75 0 38 27 77 72 77 4 0 9 0 14-1-28 37-72 59-120 59-106 0-113-73-113-186V-51c0-113 7-187 113-187 80 0 139 70 158 151 2 7 7 10 12 10 6 0 13-4 13-12 0-94-105-174-183-174-68 0-137 21-184 70C17-142 0-71 0 0s17 142 66 193c47 49 116 69 184 69 87 0 160-63 175-149 1-5 1-10 1-14 0-40-30-72-67-72z" transform="scale(.004 -.004)"/></g><g id="g130" transform="translate(17.79 3.544)"><rect id="rect128" width=".13" height="3.314" x="-.065" y="-.814" fill="currentColor" ry=".04"/></g><a xlink:href="textedit:///home/mike/code/lilypond-scripts/piano-scales/c-major-scale-left-hand.ly:7:4:5" id="a136" style="color:inherit" transform="translate(-14.226 -3.846)"><g id="g134" transform="translate(22.926 7.89)"><path id="path132" fill="currentColor" d="M218 136c55 0 108-28 108-89 0-71-55-121-102-149-35-21-75-34-116-34C53-136 0-108 0-47 0 24 55 74 102 102c35 21 75 34 116 34z" transform="scale(.004 -.004)"/></g></a><a xlink:href="textedit:///home/mike/code/lilypond-scripts/piano-scales/c-major-scale-left-hand.ly:7:12:13" id="a142" style="color:inherit" transform="translate(-14.226 -3.846)"><g id="g140" transform="translate(31.951 6.39)"><path id="path138" fill="currentColor" d="M218 136c55 0 108-28 108-89 0-71-55-121-102-149-35-21-75-34-116-34C53-136 0-108 0-47 0 24 55 74 102 102c35 21 75 34 116 34z" transform="scale(.004 -.004)"/></g></a><a xlink:href="textedit:///home/mike/code/lilypond-scripts/piano-scales/c-major-scale-left-hand.ly:7:5:6" id="a148" style="color:inherit" transform="translate(-14.226 -3.846)"><g id="g146" transform="translate(23.186 11.067)"><path id="path144" fill="currentColor" d="M54 500c45-8 91-14 137-14s92 6 137 14h4c11 0 19-7 19-14 0-2-1-4-3-6-68-68-162-101-258-101-11 0-20-10-20-21v-73c27 27 67 36 106 36 117 0 188-50 188-161C364 63 268 0 164 0 80 0 0 43 0 119c0 32 26 58 58 58s58-26 58-58c0-22-36-26-36-48 0-35 44-42 84-42 55 0 71 67 71 131 0 59-8 125-59 125-42 0-85-5-109-38-4-5-10-8-15-8-9 0-18 7-18 18v223c0 11 8 20 18 20z" transform="scale(.0022 -.0022)"/></g></a><g id="g152" transform="translate(.8 2.544)"><path id="path150" fill="currentColor" d="M557-125c0 28 23 51 51 51s51-23 51-51-23-51-51-51-51 23-51 51zm0 250c0 28 23 51 51 51s51-23 51-51-23-51-51-51-51 23-51 51zM232 263c172 0 293-88 293-251 0-263-263-414-516-521-3-3-6-4-9-4-7 0-13 6-13 13 0 3 1 6 4 9C193-373 403-226 403 2c0 120-63 235-171 235-74 0-129-54-154-126 11 5 22 8 34 8 55 0 100-45 100-100 0-58-44-106-100-106C52-87 0-40 0 19c0 133 102 244 232 244Z" transform="scale(.004 -.004)"/></g><g id="g156" transform="translate(14.788 3.544)"><rect id="rect154" width=".13" height="3.314" x="-.065" y="-.314" fill="currentColor" ry=".04"/></g><a xlink:href="textedit:///home/mike/code/lilypond-scripts/piano-scales/c-major-scale-left-hand.ly:7:10:11" id="a162" style="color:inherit" transform="translate(-14.226 -3.846)"><g id="g160" transform="translate(28.95 6.89)"><path id="path158" fill="currentColor" d="M218 136c55 0 108-28 108-89 0-71-55-121-102-149-35-21-75-34-116-34C53-136 0-108 0-47 0 24 55 74 102 102c35 21 75 34 116 34z" transform="scale(.004 -.004)"/></g></a><g id="g168" transform="translate(11.786 3.544)"><rect id="rect166" width=".13" height="3.147" x="-.065" y=".186" fill="currentColor" ry=".04"/></g><a xlink:href="textedit:///home/mike/code/lilypond-scripts/piano-scales/c-major-scale-left-hand.ly:7:8:9" id="a174" style="color:inherit" transform="translate(-14.226 -3.846)"><g id="g172" transform="translate(25.947 7.39)"><path id="path170" fill="currentColor" d="M218 136c55 0 108-28 108-89 0-71-55-121-102-149-35-21-75-34-116-34C53-136 0-108 0-47 0 24 55 74 102 102c35 21 75 34 116 34z" transform="scale(.004 -.004)"/></g></a><g id="g178" transform="translate(9.94 3.544)"><rect id="rect176" width=".13" height="3.314" x="-.065" y="-3" fill="currentColor" ry=".04"/></g><g id="g182" transform="translate(24.873 3.544)"><rect id="rect180" width=".13" height="3.314" x="-.065" y="-1.814" fill="currentColor" ry=".04"/></g><a xlink:href="textedit:///home/mike/code/lilypond-scripts/piano-scales/c-major-scale-left-hand.ly:7:19:20" id="a188" style="color:inherit" transform="translate(-14.226 -3.846)"><g id="g186" transform="translate(39.294 11.067)"><path id="path184" fill="currentColor" d="M155 471c-34 0-70-8-70-38 0-19 31-23 31-42 0-28-23-51-51-51s-51 23-51 51c0 67 68 109 141 109 93 0 174-31 174-113 0-41-6-77-42-94-11-5-17-16-17-27s6-22 17-27c40-19 59-53 59-98C346 47 263 0 160 0 78 0 0 45 0 119c0 32 26 58 58 58s58-26 58-58c0-22-36-26-36-48 0-33 42-42 80-42 46 0 56 58 56 112v38c0 40-4 69-43 69H99c-12 0-18 9-18 18s6 18 18 18h74c40 0 43 31 43 73v30c0 50-16 84-61 84z" transform="scale(.0022 -.0022)"/></g></a><a xlink:href="textedit:///home/mike/code/lilypond-scripts/piano-scales/c-major-scale-left-hand.ly:7:18:19" id="a194" style="color:inherit" transform="translate(-14.226 -3.846)"><g id="g192" transform="translate(39.034 5.39)"><path id="path190" fill="currentColor" d="M218 136c55 0 108-28 108-89 0-71-55-121-102-149-35-21-75-34-116-34C53-136 0-108 0-47 0 24 55 74 102 102c35 21 75 34 116 34z" transform="scale(.004 -.004)"/></g></a><g id="g198" transform="translate(21.87 3.544)"><rect id="rect196" width=".13" height="3.314" x="-.065" y="-1.314" fill="currentColor" ry=".04"/></g><a xlink:href="textedit:///home/mike/code/lilypond-scripts/piano-scales/c-major-scale-left-hand.ly:7:15:16" id="a204" style="color:inherit" transform="translate(-14.226 -3.846)"><g id="g202" transform="translate(36.291 11.101)"><path id="path200" fill="currentColor" d="M129 129h130c0-52 32-100 81-100 10 0 14-8 14-15s-4-14-14-14c-49 0-97 14-146 14S98 0 49 0C39 0 34 7 34 14s5 15 15 15c49 0 80 48 80 100zM0 250l129 250c3 7 13 3 21 0 14-6 28-14 44-14s31 8 45 14c2 1 2 1 4 1 8 0 16-9 16-21V129H129v215c0 15-11 23-20 23-5 0-9-2-11-7L32 233c-4-7-9-9-15-9-9 0-19 7-19 17 0 3 0 6 2 9z" transform="scale(.0022 -.0022)"/></g></a><a xlink:href="textedit:///home/mike/code/lilypond-scripts/piano-scales/c-major-scale-left-hand.ly:7:14:15" id="a210" style="color:inherit" transform="translate(-14.226 -3.846)"><g id="g208" transform="translate(36.032 5.89)"><path id="path206" fill="currentColor" d="M218 136c55 0 108-28 108-89 0-71-55-121-102-149-35-21-75-34-116-34C53-136 0-108 0-47 0 24 55 74 102 102c35 21 75 34 116 34z" transform="scale(.004 -.004)"/></g></a><a xlink:href="textedit:///home/mike/code/lilypond-scripts/piano-scales/c-major-scale-left-hand.ly:7:22:23" id="a216" style="color:inherit" transform="translate(-14.226 -3.846)"><g id="g214" transform="translate(42.036 4.89)"><path id="path212" fill="currentColor" d="M218 136c55 0 108-28 108-89 0-71-55-121-102-149-35-21-75-34-116-34C53-136 0-108 0-47 0 24 55 74 102 102c35 21 75 34 116 34z" transform="scale(.004 -.004)"/></g></a></svg>