<svg xmlns="http://www.w3.org/2000/svg" xmlns:xlink="http://www.w3.org/1999/xlink" id="svg487" width="381.341" height="59.676" version="1.2" viewBox="0 0 57.416 8.985"><style id="style267" type="text/css"></style><g id="g271" transform="translate(0 5.779)"><path id="line269" stroke="currentColor" stroke-linecap="round" stroke-linejoin="round" stroke-width=".1" d="M.05 0h57.316"/></g><g id="g275" transform="translate(0 4.779)"><path id="line273" stroke="currentColor" stroke-linecap="round" stroke-linejoin="round" stroke-width=".1" d="M.05 0h57.316"/></g><g id="g279" transform="translate(0 3.779)"><path id="line277" stroke="currentColor" stroke-linecap="round" stroke-linejoin="round" stroke-width=".1" d="M.05 0h57.316"/></g><g id="g283" transform="translate(0 2.779)"><path id="line281" stroke="currentColor" stroke-linecap="round" stroke-linejoin="round" stroke-width=".1" d="M.05 0h57.316"/></g><g id="g287" transform="translate(0 1.779)"><path id="line285" stroke="currentColor" stroke-linecap="round" stroke-linejoin="round" stroke-width=".1" d="M.05 0h57.316"/></g><g id="g291" transform="translate(47.319 3.779)"><rect id="rect289" width=".19" height="4" x="0" y="-2" fill="currentColor" ry="0"/></g><g id="g295" transform="translate(20.946 3.779)"><rect id="rect293" width=".19" height="4" x="0" y="-2" fill="currentColor" ry="0"/></g><g id="g299" transform="translate(33.898 3.779)"><rect id="rect297" width=".19" height="4" x="0" y="-2" fill="currentColor" ry="0"/></g><g id="g303" transform="translate(-8.536 6.779)"><rect id="rect301" width="1.956" height=".2" x="62.623" y="-.1" fill="currentColor" ry=".1"/></g><g id="g307" transform="translate(-8.536 6.779)"><rect id="rect305" width="1.956" height=".2" x="16.91" y="-.1" fill="currentColor" ry=".1"/></g><g id="g311" transform="translate(42.317 3.779)"><rect id="rect309" width=".13" height="3.314" x="-.065" y="-2.5" fill="currentColor" ry=".04"/></g><a xlink:href="textedit:///home/mike/code/lilypond-scripts/c-major-scale-right-hand.ly:7:8:9" id="a317" style="color:inherit" transform="translate(-14.226 -3.845)"><g id="g315" transform="translate(55.304 8.624)"><path id="path313" fill="currentColor" d="M218 136c55 0 108-28 108-89 0-71-55-121-102-149-35-21-75-34-116-34C53-136 0-108 0-47 0 24 55 74 102 102c35 21 75 34 116 34z" transform="scale(.004 -.004)"/></g></a><g id="g321" transform="translate(39.315 3.779)"><rect id="rect319" width=".13" height="3.314" x="-.065" y="-3" fill="currentColor" ry=".04"/></g><a xlink:href="textedit:///home/mike/code/lilypond-scripts/c-major-scale-right-hand.ly:7:6:7" id="a327" style="color:inherit" transform="translate(-14.226 -3.845)"><g id="g325" transform="translate(52.302 8.124)"><path id="path323" fill="currentColor" d="M218 136c55 0 108-28 108-89 0-71-55-121-102-149-35-21-75-34-116-34C53-136 0-108 0-47 0 24 55 74 102 102c35 21 75 34 116 34z" transform="scale(.004 -.004)"/></g></a><g id="g331" transform="translate(28.123 3.779)"><rect id="rect329" width=".13" height="3.147" x="-.065" y=".186" fill="currentColor" ry=".04"/></g><g id="g335" transform="translate(35.156 3.779)"><rect id="rect333" width=".13" height="3.147" x="-.065" y=".186" fill="currentColor" ry=".04"/></g><a xlink:href="textedit:///home/mike/code/lilypond-scripts/c-major-scale-right-hand.ly:7:4:5" id="a341" style="color:inherit" transform="translate(-14.226 -3.845)"><g id="g339" transform="translate(49.318 7.624)"><path id="path337" fill="currentColor" d="M218 136c55 0 108-28 108-89 0-71-55-121-102-149-35-21-75-34-116-34C53-136 0-108 0-47 0 24 55 74 102 102c35 21 75 34 116 34z" transform="scale(.004 -.004)"/></g></a><g id="g345" transform="translate(31.126 3.779)"><rect id="rect343" width=".13" height="3.314" x="-.065" y="-.314" fill="currentColor" ry=".04"/></g><a xlink:href="textedit:///home/mike/code/lilypond-scripts/c-major-scale-right-hand.ly:6:25:26" id="a351" style="color:inherit" transform="translate(-14.226 -3.845)"><g id="g349" transform="translate(45.287 7.124)"><path id="path347" fill="currentColor" d="M218 136c55 0 108-28 108-89 0-71-55-121-102-149-35-21-75-34-116-34C53-136 0-108 0-47 0 24 55 74 102 102c35 21 75 34 116 34z" transform="scale(.004 -.004)"/></g></a><a xlink:href="textedit:///home/mike/code/lilypond-scripts/c-major-scale-right-hand.ly:7:14:15" id="a357" style="color:inherit" transform="translate(-14.226 -3.845)"><g id="g355" transform="translate(65.638 10.124)"><path id="path353" fill="currentColor" d="M218 136c55 0 108-28 108-89 0-71-55-121-102-149-35-21-75-34-116-34C53-136 0-108 0-47 0 24 55 74 102 102c35 21 75 34 116 34z" transform="scale(.004 -.004)"/></g></a><g id="g361" transform="translate(52.65 3.779)"><rect id="rect359" width=".13" height="3.314" x="-.065" y="-1" fill="currentColor" ry=".04"/></g><a xlink:href="textedit:///home/mike/code/lilypond-scripts/c-major-scale-right-hand.ly:7:16:17" id="a367" style="color:inherit" transform="translate(-14.226 -3.845)"><g id="g365" transform="translate(68.64 10.624)"><path id="path363" fill="currentColor" d="M218 136c55 0 108-28 108-89 0-71-55-121-102-149-35-21-75-34-116-34C53-136 0-108 0-47 0 24 55 74 102 102c35 21 75 34 116 34z" transform="scale(.004 -.004)"/></g></a><g id="g371" transform="translate(55.653 3.779)"><rect id="rect369" width=".13" height="3.314" x="-.065" y="-.5" fill="currentColor" ry=".04"/></g><g id="g375" transform="translate(49.648 3.779)"><rect id="rect373" width=".13" height="3.314" x="-.065" y="-1.5" fill="currentColor" ry=".04"/></g><a xlink:href="textedit:///home/mike/code/lilypond-scripts/c-major-scale-right-hand.ly:7:12:13" id="a381" style="color:inherit" transform="translate(-14.226 -3.845)"><g id="g379" transform="translate(62.635 9.624)"><path id="path377" fill="currentColor" d="M218 136c55 0 108-28 108-89 0-71-55-121-102-149-35-21-75-34-116-34C53-136 0-108 0-47 0 24 55 74 102 102c35 21 75 34 116 34z" transform="scale(.004 -.004)"/></g></a><g id="g385" transform="translate(45.32 3.779)"><rect id="rect383" width=".13" height="3.314" x="-.065" y="-2" fill="currentColor" ry=".04"/></g><a xlink:href="textedit:///home/mike/code/lilypond-scripts/c-major-scale-right-hand.ly:7:10:11" id="a391" style="color:inherit" transform="translate(-14.226 -3.845)"><g id="g389" transform="translate(58.306 9.124)"><path id="path387" fill="currentColor" d="M218 136c55 0 108-28 108-89 0-71-55-121-102-149-35-21-75-34-116-34C53-136 0-108 0-47 0 24 55 74 102 102c35 21 75 34 116 34z" transform="scale(.004 -.004)"/></g></a><g id="g395" transform="translate(5 3.779)"><path id="path393" fill="currentColor" d="M359 27c-49 0-75 42-75 75 0 38 27 77 72 77 4 0 9 0 14-1-28 37-72 59-120 59-106 0-113-73-113-186V-51c0-113 7-187 113-187 80 0 139 70 158 151 2 7 7 10 12 10 6 0 13-4 13-12 0-94-105-174-183-174-68 0-137 21-184 70C17-142 0-71 0 0s17 142 66 193c47 49 116 69 184 69 87 0 160-63 175-149 1-5 1-10 1-14 0-40-30-72-67-72z" transform="scale(.004 -.004)"/></g><g id="g399" transform="translate(18.946 3.779)"><rect id="rect397" width=".13" height="3.314" x="-.065" y="-2" fill="currentColor" ry=".04"/></g><a xlink:href="textedit:///home/mike/code/lilypond-scripts/c-major-scale-right-hand.ly:6:16:17" id="a405" style="color:inherit" transform="translate(-14.226 -3.845)"><g id="g403" transform="translate(32.193 11.335)"><path id="path401" fill="currentColor" d="M129 129h130c0-52 32-100 81-100 10 0 14-8 14-15s-4-14-14-14c-49 0-97 14-146 14S98 0 49 0C39 0 34 7 34 14s5 15 15 15c49 0 80 48 80 100zM0 250l129 250c3 7 13 3 21 0 14-6 28-14 44-14s31 8 45 14c2 1 2 1 4 1 8 0 16-9 16-21V129H129v215c0 15-11 23-20 23-5 0-9-2-11-7L32 233c-4-7-9-9-15-9-9 0-19 7-19 17 0 3 0 6 2 9z" transform="scale(.0022 -.0022)"/></g></a><a xlink:href="textedit:///home/mike/code/lilypond-scripts/c-major-scale-right-hand.ly:6:15:16" id="a411" style="color:inherit" transform="translate(-14.226 -3.845)"><g id="g409" transform="translate(31.933 9.124)"><path id="path407" fill="currentColor" d="M218 136c55 0 108-28 108-89 0-71-55-121-102-149-35-21-75-34-116-34C53-136 0-108 0-47 0 24 55 74 102 102c35 21 75 34 116 34z" transform="scale(.004 -.004)"/></g></a><a xlink:href="textedit:///home/mike/code/lilypond-scripts/c-major-scale-right-hand.ly:6:4:5" id="a417" style="color:inherit" transform="translate(-14.226 -3.845)"><g id="g415" transform="translate(22.926 10.624)"><path id="path413" fill="currentColor" d="M218 136c55 0 108-28 108-89 0-71-55-121-102-149-35-21-75-34-116-34C53-136 0-108 0-47 0 24 55 74 102 102c35 21 75 34 116 34z" transform="scale(.004 -.004)"/></g></a><a xlink:href="textedit:///home/mike/code/lilypond-scripts/c-major-scale-right-hand.ly:6:6:7" id="a423" style="color:inherit" transform="translate(-14.226 -3.845)"><g id="g421" transform="translate(23.186 12.83)"><path id="path419" fill="currentColor" d="M129 129h130c0-52 32-100 81-100 10 0 14-8 14-15s-4-14-14-14c-49 0-97 14-146 14S98 0 49 0C39 0 34 7 34 14s5 15 15 15c49 0 80 48 80 100zM0 250l129 250c3 7 13 3 21 0 14-6 28-14 44-14s31 8 45 14c2 1 2 1 4 1 8 0 16-9 16-21V129H129v215c0 15-11 23-20 23-5 0-9-2-11-7L32 233c-4-7-9-9-15-9-9 0-19 7-19 17 0 3 0 6 2 9z" transform="scale(.0022 -.0022)"/></g></a><g id="g427" transform="translate(15.944 3.779)"><rect id="rect425" width=".13" height="3.314" x="-.065" y="-1.5" fill="currentColor" ry=".04"/></g><g id="g431" transform="translate(.8 4.779)"><path id="path429" fill="currentColor" d="M266-635h-6c-108 0-195 88-195 197 0 58 53 103 112 103 54 0 95-47 95-103 0-52-43-95-95-95-11 0-21 2-31 6 26-39 68-65 117-65h4zm195 432c68 24 113 95 113 164 0 90-66 179-173 190 24-116 46-231 60-354zM74 28c0-135 129-247 264-247 28 0 55 2 82 6-14 127-37 245-63 364-79-8-124-61-124-119 0-44 25-91 81-123 5-5 7-10 7-15 0-11-10-22-22-22-3 0-6 1-9 2C210-83 173-11 173 59c0 88 58 174 160 197-14 58-29 117-46 175C180 310 74 188 74 28Zm261-290C147-262 2-90 2 112c0 177 131 306 248 441-19 62-37 125-45 190-6 52-7 104-7 156 0 115 55 224 149 292 6 5 14 5 20 0 71-84 133-245 133-358 0-143-86-255-180-364 21-68 39-138 56-207 4 0 9 1 13 1 155 0 256-128 256-261 0-76-33-154-107-210-22-17-47-28-73-36 3-35 5-70 5-105 0-19-1-39-2-58-7-119-88-225-202-228l1 43c93 2 153 92 159 191 1 18 2 37 2 55 0 31-1 61-4 92-29-5-58-8-89-8zm93 1178c0 55-4 79-20 129-99-48-162-149-162-259 0-74 18-133 36-194 80 97 146 198 146 324z" transform="scale(.004 -.004)"/></g><a xlink:href="textedit:///home/mike/code/lilypond-scripts/c-major-scale-right-hand.ly:6:12:13" id="a437" style="color:inherit" transform="translate(-14.226 -3.845)"><g id="g435" transform="translate(29.19 11.796)"><path id="path433" fill="currentColor" d="M155 471c-34 0-70-8-70-38 0-19 31-23 31-42 0-28-23-51-51-51s-51 23-51 51c0 67 68 109 141 109 93 0 174-31 174-113 0-41-6-77-42-94-11-5-17-16-17-27s6-22 17-27c40-19 59-53 59-98C346 47 263 0 160 0 78 0 0 45 0 119c0 32 26 58 58 58s58-26 58-58c0-22-36-26-36-48 0-33 42-42 80-42 46 0 56 58 56 112v38c0 40-4 69-43 69H99c-12 0-18 9-18 18s6 18 18 18h74c40 0 43 31 43 73v30c0 50-16 84-61 84z" transform="scale(.0022 -.0022)"/></g></a><a xlink:href="textedit:///home/mike/code/lilypond-scripts/c-major-scale-right-hand.ly:6:11:12" id="a443" style="color:inherit" transform="translate(-14.226 -3.845)"><g id="g441" transform="translate(28.93 9.624)"><path id="path439" fill="currentColor" d="M218 136c55 0 108-28 108-89 0-71-55-121-102-149-35-21-75-34-116-34C53-136 0-108 0-47 0 24 55 74 102 102c35 21 75 34 116 34z" transform="scale(.004 -.004)"/></g></a><g id="g449" transform="translate(12.941 3.779)"><rect id="rect447" width=".13" height="3.314" x="-.065" y="-1" fill="currentColor" ry=".04"/></g><a xlink:href="textedit:///home/mike/code/lilypond-scripts/c-major-scale-right-hand.ly:6:9:10" id="a455" style="color:inherit" transform="translate(-14.226 -3.845)"><g id="g453" transform="translate(25.929 10.124)"><path id="path451" fill="currentColor" d="M218 136c55 0 108-28 108-89 0-71-55-121-102-149-35-21-75-34-116-34C53-136 0-108 0-47 0 24 55 74 102 102c35 21 75 34 116 34z" transform="scale(.004 -.004)"/></g></a><g id="g459" transform="translate(9.94 3.779)"><rect id="rect457" width=".13" height="3.314" x="-.065" y="-.5" fill="currentColor" ry=".04"/></g><a xlink:href="textedit:///home/mike/code/lilypond-scripts/c-major-scale-right-hand.ly:6:23:24" id="a465" style="color:inherit" transform="translate(-14.226 -3.845)"><g id="g463" transform="translate(42.285 7.624)"><path id="path461" fill="currentColor" d="M218 136c55 0 108-28 108-89 0-71-55-121-102-149-35-21-75-34-116-34C53-136 0-108 0-47 0 24 55 74 102 102c35 21 75 34 116 34z" transform="scale(.004 -.004)"/></g></a><g id="g469" transform="translate(26.277 3.779)"><rect id="rect467" width=".13" height="3.314" x="-.065" y="-3" fill="currentColor" ry=".04"/></g><a xlink:href="textedit:///home/mike/code/lilypond-scripts/c-major-scale-right-hand.ly:6:21:22" id="a475" style="color:inherit" transform="translate(-14.226 -3.845)"><g id="g473" transform="translate(39.264 8.124)"><path id="path471" fill="currentColor" d="M218 136c55 0 108-28 108-89 0-71-55-121-102-149-35-21-75-34-116-34C53-136 0-108 0-47 0 24 55 74 102 102c35 21 75 34 116 34z" transform="scale(.004 -.004)"/></g></a><g id="g479" transform="translate(23.275 3.779)"><rect id="rect477" width=".13" height="3.314" x="-.065" y="-2.5" fill="currentColor" ry=".04"/></g><a xlink:href="textedit:///home/mike/code/lilypond-scripts/c-major-scale-right-hand.ly:6:19:20" id="a485" style="color:inherit" transform="translate(-14.226 -3.845)"><g id="g483" transform="translate(36.262 8.624)"><path id="path481" fill="currentColor" d="M218 136c55 0 108-28 108-89 0-71-55-121-102-149-35-21-75-34-116-34C53-136 0-108 0-47 0 24 55 74 102 102c35 21 75 34 116 34z" transform="scale(.004 -.004)"/></g></a></svg>